<?xml version="1.0" encoding="UTF-8"?><svg id="Layer_1" xmlns="http://www.w3.org/2000/svg" viewBox="0 0 613.02 554.42"><defs><style>.cls-1{fill:none;}.cls-1,.cls-2{stroke:#000;stroke-miterlimit:10;}.cls-3{stroke-width:0px;}.cls-3,.cls-2{fill:#fff;}</style></defs><path class="cls-2" d="M162.74,140.04l84.23-3.97h3.56c27.41,0,41.12,13.95,41.12,41.84,0,8.47-1.78,20.22-5.33,35.22-28.89,120.74-88.9,217.56-180.02,290.47-35.56,28.24-77.25,50.33-90.28,50.33,1.64-13.24,13.78-26.94,30.34-47.32,16.56-20.38,77.43-93.72,103.73-127.99-19.41-24.18-38.37-45.01-56.9-62.49-8.15-7.41-12.22-14.92-12.22-22.51,0-4.41,1.26-8.74,3.78-12.97,4-6.53,9.48-9.8,16.45-9.8,5.78,0,12.59,2.21,20.45,6.62,24.15,13.24,45.26,28.86,63.34,46.87,19.41-36.36,33.26-71.93,41.56-106.71,1.92-7.94,2.89-13.06,2.89-15.36,0-4.24-2.82-6.18-8.45-5.83l-82.45,4.77c-30.67,48.9-62.23,86.32-94.68,112.27-10.37,8.3-18.97,12.44-25.78,12.44-6.22,0-10.97-2.91-14.22-8.74-2.22-3.88-3.33-8.12-3.33-12.71,0-6.18,2.15-12.44,6.45-18.8,1.48-2.12,6.07-7.32,13.78-15.62,25.63-27.89,48.89-61.87,69.79-101.94,5.63-10.94,10.59-21.54,14.89-31.77,6.22-15,15.56-22.51,28-22.51,8.89,0,16.3,3.62,22.22,10.86,3.41,4.06,5.78,9.18,7.11,15.36ZM279.86,119.18c3.13,0,8.07,3.67,14.83,10.99,5.77,6.28,8.65,11.23,8.65,14.82,0,2.55-.93,4.75-2.8,6.58-1.48,1.44-3.16,2.16-5.03,2.16-2.53,0-4.67-1.7-6.43-5.1-3.24-6.35-7.14-12.34-11.7-17.96-1.54-1.9-2.31-3.86-2.31-5.89,0-3.73,1.59-5.6,4.78-5.6ZM292.31,93.79c4,0,9.83,3.84,17.49,11.51,7.12,7.11,10.67,13.16,10.67,18.17,0,3.47-1.12,6.22-3.35,8.24-1.63,1.45-3.46,2.18-5.49,2.18-2.85,0-5.42-2.02-7.73-6.06-3.73-6.78-8.54-13.52-14.44-20.23-2.17-2.5-3.25-4.92-3.25-7.27,0-1.61.54-3.11,1.63-4.48,1.08-1.37,2.58-2.06,4.47-2.06Z"/><path class="cls-2" d="M303.27,306.17c7.55,0,17.59,8.41,30.13,25.24,8.46,11.42,12.7,20.45,12.7,27.08,0,6.12-2.55,11.01-7.65,14.69-3.37,2.55-6.99,3.82-10.86,3.82-7.65,0-13-4.59-16.06-13.77-4.28-12.75-9.84-24.32-16.67-34.72-2.55-3.88-3.82-7.65-3.82-11.32,0-2.75.86-5.05,2.6-6.88,2.45-2.75,5.66-4.13,9.64-4.13ZM467.1,293.62c3.67,0,7.04.97,10.1,2.91,5.2,3.27,7.8,8.36,7.8,15.3s-2.45,18.76-7.34,35.79c-15.09,53.34-45.08,93.36-89.95,120.08-11.73,6.93-60.95,21.8-65.74,21.8s39.13-39.6,47.39-45.21c15.09-10.3,29.16-24.57,42.22-42.83,17.95-24.99,30.39-55.27,37.32-90.86,2.24-11.32,8.31-16.98,18.2-16.98ZM366.45,286.13c4.59,0,8.87,2.35,12.85,7.04,9.38,11.12,16.37,23.25,20.96,36.41,1.73,4.8,2.6,8.97,2.6,12.54,0,7.65-3.01,13.16-9.03,16.52-3.06,1.63-6.27,2.45-9.64,2.45-8.57,0-13.92-5.15-16.06-15.45-3.27-15.3-7.34-28.4-12.24-39.31-1.43-3.16-2.14-6.07-2.14-8.72,0-4.38,1.89-7.6,5.66-9.64,2.14-1.22,4.49-1.84,7.04-1.84Z"/><path class="cls-2" d="M516.55,251.17l26.63,96.55c.4,1.44.47,2.97.22,4.44-.49,2.88-.87,3.48-1.15,6.36-.4,4.2-3.35,7.89-7.47,8.81-6.67,1.49-14.48-.88-23.89-5.24-2.71-1.25-4.72-3.66-5.52-6.54l-57.94-210.08c-.62-2.27-.65-6.23-.34-8.56.47-3.52,1.55-5.63,3.19-8.14,2.3-3.54,5.07-5.94,7.14-7.4,1.72-1.22,3.75-1.88,5.86-1.89,4.42-.01,12.77.44,15.98,3.86,1.94,2.09,3.34,4.69,4.2,7.81l17.77,64.42c1.22,4.41,5.23,7.48,9.81,7.48,33.75.02,61.24,3.5,82.47,10.43,9.99,3.12,16.07,8.63,18.25,16.53,1.43,5.17.89,10.09-1.59,14.76-2.6,5.02-6.63,8.28-12.09,9.79-4.68,1.29-11.14.5-19.38-2.37-14.99-5.13-31.68-9.7-50.08-13.7-7.51-1.63-14.1,5.27-12.05,12.68Z"/><path class="cls-2" d="M446.8,251.79c-.07-.5-.5-.92-1.02-1.35-.54-.43-1.18-.9-1.61-1.37-.47-.5-1.02-1.06-1.49-1.61-.5-.54-.92-1.09-1.25-1.72-.61-1.16-1.2-2.29-1.7-3.47-.57-1.2-1.02-2.39-1.44-3.61-.47-1.35-.9-2.74-1.28-4.16-.38-1.39-.73-2.79-1.11-4.18-4.94.05-9.78.5-14.36,1.61-4.54,1.13-8.86,2.95-12.87,5.72-2.29,1.61-4.54,3.35-6.73,5.08-2.2,1.8-4.32,3.61-6.5,5.39-4.65,3.9-9.61,7.09-14.98,9.12-5.39,2.03-11.24,2.95-17.67,2.32-5.1-.5-9.92-2.15-13.94-4.87-4.04-2.72-7.21-6.47-8.95-11.32-.71-1.98-.92-3.95-.69-5.81.26-1.89,1.02-3.76,2.29-5.53,1.82,2.36,4.32,3.9,7.13,4.61,2.79.73,5.83.54,8.72-.43,3.69-1.28,6.87-3.14,9.57-5.46,2.76-2.34,5.06-5.1,7.09-8.15.92-1.39,1.77-2.88,2.62-4.39.8-1.54,1.65-3.09,2.6-4.7,0,.5-.05.92-.05,1.3s0,.73.05,1.06c.21,1.91.38,3.85.59,5.81.21,1.94.43,3.9.71,5.84.14.9.52,1.44,1.11,1.75.59.26,1.39.21,2.41-.09,3.35-1.02,6.02-2.67,8.27-4.77,2.2-2.13,3.97-4.68,5.5-7.42,2.46-4.46,4.06-9.12,5.13-13.89,1.06-4.75,1.54-9.64,1.65-14.55.17-5.5.21-11.01.12-16.51-.07-5.48-.21-10.99-.38-16.49-.17-7.06-.71-14.1-1.49-21.1-.8-7.04-1.82-14.03-2.95-21.02-1.23-7.44-2.72-14.81-4.8-22.06-2.13-7.21-4.8-14.29-8.39-21.14-2.62-4.91-4.61-9.99-5.84-15.26-1.28-5.24-1.8-10.68-1.42-16.28.09-1.61-.12-3.26-.38-4.87-.26-1.65-.59-3.31-.76-4.96-.09-.8-.33-1.44-.76-1.98-.47-.5-1.06-.9-1.84-1.18-.71-.26-1.46-.54-2.2-.8-.76-.26-1.51-.47-2.29-.64-3-.64-5.98-.64-8.84-.31-2.93.35-5.81,1.06-8.65,1.96-3.4,1.09-6.83,1.72-10.3,1.98-3.43.31-6.95.14-10.47-.33-2.01-.31-3.99-.59-5.98-.94-2.03-.28-4.02-.64-6.02-.87-1.49-.21-2.95-.21-4.44,0-1.49.21-2.93.54-4.32,1.04,7.84,2.22,15.5,5.01,23.39,7.09,7.89,2.08,15.92,3.4,24.5,2.58-.47.47-.99.9-1.44,1.23-.52.35-1.02.61-1.58.73-1.51.21-3.05.5-4.56.71-1.58.21-3.09.35-4.63.21-2.95-.17-5.98-.54-8.93-.87-2.98-.38-5.93-.78-8.95-.94-1.87-.12-3.76-.05-5.67.09-1.91.12-3.83.33-5.72.5-.35,0-.73.26-1.02.52-.35.28-.64.69-.73.97-.05.21.14.52.38.85.26.31.64.59.95.8,4.23,2.79,8.5,5.6,12.78,8.39,4.25,2.76,8.53,5.55,12.8,8.36.38.24.76.5,1.16.76.38.26.76.5,1.13.76-.05.14-.09.21-.12.31-.05.07-.09.17-.14.24-1.51-.4-3.05-.87-4.61-1.39-1.54-.45-3.19-.97-4.89-1.49,1.7,1.16,3.28,2.29,4.84,3.35,1.56,1.06,3.05,2.13,4.61,3.09,2.6,1.75,5.17,3.43,7.8,5.13,2.65,1.7,5.27,3.35,7.84,5.06,1.8,1.09,3.14,2.53,4.28,4.06,1.16,1.56,2.08,3.21,3.14,4.82-.07.05-.17.14-.26.21-.07.05-.17.14-.24.17-.8-.92-1.63-1.87-2.43-2.79-.8-.92-1.61-1.87-2.41-2.79-1.35.5-2.13.71-2.74.5-.61-.21-1.06-.85-1.84-2.08-.07-.17-.21-.38-.28-.54-.12-.17-.26-.33-.33-.52-.64-.8-1.23-1.25-1.91-1.39-.73-.12-1.49.09-2.39.59-.24.17-.54.35-.8.57-.24.17-.5.33-.76.54-1.32.9-2.41,1.28-3.26,1.11-.85-.21-1.49-.99-1.98-2.43-.99-2.67-2.39-4.75-4.3-6.35-1.84-1.65-4.23-2.79-7.02-3.59-1.96-.59-3.73-1.39-5.34-2.5-1.65-1.06-3.14-2.36-4.49-3.85-.95-.97-2.01-1.87-3.19-2.67-1.18-.8-2.46-1.49-3.73-2.08-2.41-1.11-4.91-2.13-7.37-3.09-2.5-1.02-4.98-1.94-7.49-2.93-.64-.24-1.23-.33-1.8-.21-.54.09-1.04.43-1.46.99-.43.5-.85,1.02-1.23,1.51-.43.52-.85,1.02-1.32,1.49-.69.69-1.28,1.02-1.87.92-.54-.02-1.06-.5-1.56-1.3-.35-.57-.64-1.11-.9-1.75-.28-.64-.59-1.3-.97-2.08-.38,1.02-.73,1.91-1.06,2.81-.33.92-.69,1.77-1.02,2.67-.31-.52-.59-1.02-.9-1.49-.28-.47-.54-.94-.85-1.39-.12,0-.24.05-.33.05-.12,0-.26.02-.33.02-.14.64-.21,1.28-.31,1.96-.12.71-.26,1.51-.38,2.46-.8-.85-1.77-1.61-2.55-2.34-.8-.71-1.35-1.39-1.46-2.15-.14-1.06.12-2.17.45-3.35.4-1.18.85-2.41,1.2-3.73.21,1.32.43,2.5.59,3.64.17,1.11.33,2.17.5,3.24h.8c.14-.38.26-.78.35-1.16.12-.38.24-.76.38-1.09.5-1.7,1.3-3.24,2.41-4.42,1.13-1.18,2.62-1.98,4.63-2.29,1.04-.17,2.2-.21,3.28-.17,1.16.05,2.24.17,3.4.31,1.02.12,1.98.33,3.05.64,1.06.24,2.2.54,3.43.83-.33-.5-.64-.92-.87-1.25-.26-.38-.47-.73-.73-1.02-1.65-2.01-3.64-3.47-5.84-4.68-2.17-1.18-4.58-2.08-7.09-2.74-1.94-.57-3.17-1.28-3.69-2.29-.5-1.02-.33-2.39.47-4.16.69-1.44,1.65-2.53,2.79-3.47,1.16-.92,2.46-1.7,3.83-2.41,3.71-2.03,7.65-3.57,11.69-4.84,4.02-1.25,8.13-2.27,12.28-3.26,1.82-.43,3.59-.87,5.41-1.3,1.82-.43,3.61-.85,5.48-1.32-.85-1.23-1.54-1.98-2.39-2.34-.8-.33-1.77-.28-3.12.05-1.32.26-2.6.57-3.9.8-1.32.26-2.65.57-3.99.8-.97-2.53-2.55-4.18-4.54-5.24-2.03-1.11-4.42-1.61-6.99-1.96.54.57,1.11,1.11,1.65,1.63.52.54.97,1.04,1.35,1.65.47.71.73,1.51.69,2.27-.05.78-.43,1.54-1.18,2.17-.73.64-1.54.92-2.34.92-.85.05-1.65-.17-2.5-.59-.28-.17-.59-.38-.87-.59-.31-.21-.57-.43-.85-.64-.85-.64-1.98-.97-3.19-.97-1.18-.05-2.46.26-3.54.8-1.06.59-1.61,1.28-1.82,2.08-.21.8-.14,1.7.12,2.67.12.47.31.97.47,1.44.17.5.33.97.45,1.49.43,1.46.19,2.74-.61,3.59-.78.85-2.06,1.32-3.69,1.16-.35,0-.69-.09-.99-.21-.28-.09-.5-.19-.66-.21-1.02,2.88-2.01,5.76-3.02,8.67-.97,2.88-1.98,5.76-2.95,8.65-.14.43-.35.85-.52,1.32-.12.43-.17.85-.05,1.18.57,1.23.57,2.36.35,3.47-.17,1.16-.59,2.24-.8,3.4-.31,1.51-.64,3-.52,4.44.12,1.49.69,2.83,2.13,4.11.12.12.17.47.12.8,0,.33-.12.71-.26.97-2.48,5.01-4.18,10.13-5.13,15.33-.14.87-.28,1.75-.38,2.62.43.47.83.95,1.23,1.44.95-6.4,3.31-12.59,6.57-18.66,2.76,1.3,5.48,2.62,8.17,3.92,2.72,1.28,5.43,2.6,8.2,3.9-4.84,4.3-8.43,9.28-11.62,14.58-1.16,1.94-2.24,3.9-3.33,5.91.43.52.85,1.06,1.28,1.58.69-1.2,1.37-2.39,2.1-3.54,3.35-5.41,7.32-10.51,12.59-14.79-.05,2.5-.21,4.96-.31,7.42-.09,2.41-.12,4.87,0,7.3.09,2.36.38,4.75.73,7.11.33,2.36.71,4.75,1.02,7.11h.83c2.06-3.31,4.09-6.59,6.17-10.04,2.06-3.38,4.23-6.85,6.47-10.51,2.03,2.39,4.02,4.63,5.93,6.78,1.91,2.22,3.78,4.37,5.5,6.57,4.75,6.07,8.81,12.43,12.12,19.11,3.26,6.71,5.72,13.73,7.32,21.14,1.32,6.02,2.46,12.05,3.45,18.05.97,6.02,1.77,12.1,2.41,18.19.17,1.56.38,3.09.47,4.65.02,1.56-.09,3.14-.57,4.75-.66,2.29-1.23,4.58-1.68,6.9-.47,2.34-.85,4.68-1.2,6.99-.33,2.13-.5,4.28-.64,6.5-.17,2.15-.24,4.44-.45,6.78-1.61-.95-3.24-1.82-4.8-2.72-1.61-.9-3.17-1.82-4.8-2.72-.71,1.06-.61,2.13-.38,3.21.26,1.11.64,2.24.59,3.4-2.88-.69-5.58-1.61-8.17-2.93-2.58-1.28-4.98-2.93-7.32-5.08-.73,6.19.33,11.48,2.76,16.06,2.41,4.61,6.21,8.5,11.01,12.02-1.91,3.05-3,6.24-3.52,9.45-.52,3.26-.43,6.57.12,9.95,1.42,8.48,5.81,15.21,12.12,19.47,6.35,4.18,14.58,5.93,23.6,4.44,3.95-.69,7.63-1.91,11.06-3.57,3.45-1.68,6.61-3.76,9.71-6.05,2.67-1.98,5.29-4.11,7.89-6.19,2.62-2.08,5.2-4.2,7.91-6.19,2.55-1.87,5.27-3.33,8.17-4.39,2.93-1.11,6.07-1.75,9.43-2.01-4.32,6.78-8.36,13.65-11.08,20.91-2.69,7.23-4.13,14.91-3.38,23.39-.97-2.22-1.77-4.25-2.17-6.28-.4-2.03-.4-4.06.26-6.14.38-1.23.73-2.41,1.11-3.59.33-1.23.71-2.43,1.13-3.61.43-1.23.94-2.46,1.39-3.73.52-1.23.99-2.46,1.49-3.69-.87.9-1.7,1.82-2.41,2.81-.76.97-1.44,1.94-2.08,2.95-2.46,3.83-4.39,7.75-5.5,11.91-1.06,4.11-1.32,8.43-.38,12.97.47,2.29,1.02,4.58,1.49,6.87.45,2.29.83,4.56,1.04,6.9.26,2.98.35,6.02.4,9.02,1.04-1.06,2.41-1.82,3.92-2.29-.02-1.18-.07-2.32-.17-3.52-.21-3.85-.54-7.65-1.51-11.43-.19-.69-.21-1.39-.31-2.08-.05-.71-.05-1.44-.12-2.13.12-.02.24-.02.33-.07.12-.05.26-.05.38-.09.17.31.38.57.54.8.21.31.4.57.47.85.38,1.32.85,2.6,1.23,3.9.38,1.28.73,2.6.95,3.95.45,2.88.76,5.81,1.09,8.74,0,.12.05.28.05.4,4.32-.66,9.57-.17,14.67.26.17-.38.33-.71.54-1.06,1.23-2.15,1.7-4.18,1.54-6.17-.14-2.06-.9-4.04-2.22-6.07-1.98-3.17-3.92-6.35-5.84-9.57-1.91-3.24-3.78-6.45-5.65-9.71-.97-1.7-1.77-3.47-2.03-5.29-.26-1.82,0-3.69,1.06-5.69,2.08-3.85,4.11-7.8,6.09-11.69,2.03-3.92,4.04-7.82,6.12-11.72.12-.31.4-.59.71-.85.31-.21.64-.43.94-.43.76-.14,1.51-.14,2.27-.14s1.58.05,2.39.05c.47,3.85.87,7.75,2.29,11.27,1.44,3.47,3.9,6.57,8.5,8.79.14-1.37.26-2.67.33-3.9.14-1.23.19-2.43.05-3.61ZM298.85,58.5c-2.36-1.02-4.75-2.03-7.21-3.09.26-.69.47-1.28.73-1.96.26-.66.5-1.39.8-2.24.43.8.71,1.44,1.02,2.03.28.61.59,1.11.85,1.58.5.85,1.06,1.3,1.65,1.39s1.23-.21,1.94-.92c.43-.4.76-.85,1.11-1.32.38-.47.71-.97,1.06-1.44.76-.92,1.35-1.49,2.03-1.61.64-.09,1.39.17,2.46.8.64.38,1.23.71,1.87,1.06.64.38,1.3.71,1.98,1.09-.54,1.28-1.06,2.5-1.61,3.73-.52,1.28-1.06,2.55-1.65,3.85-2.39-.97-4.7-1.98-7.04-2.95ZM315.67,77.14c-3.21,5.24-6.21,10.56-9.52,15.76-.64-2.74-1.06-5.5-1.32-8.27-.21-2.69-.26-5.41,0-8.17.21-3.05.76-6,1.54-8.98.76-2.93,1.77-5.81,2.88-8.69.02-.07.07-.17.12-.24.05-.14.09-.21.12-.31,1.02-2.15,2.08-3.43,3.4-3.85,1.3-.43,2.93,0,5.03,1.28,1.54.87,2.93,1.89,4.32,2.95,1.44,1.06,2.83,2.13,4.28,3.19-4.18,4.91-7.61,10.09-10.84,15.33ZM349.36,91.88c-.38-.76-.85-1.44-1.44-2.03-.59-.54-1.3-1.06-2.2-1.49-.8-.38-1.54-.97-2.2-1.68-.69-.69-1.32-1.44-2.08-2.13-.47.47-.95.97-1.39,1.44-.47.47-.94.92-1.49,1.3-.17.14-.59.21-.99.21-.38,0-.76-.07-.87-.21-.69-.8-1.23-1.68-1.82-2.53-.59-.85-1.23-1.7-2.03-2.29-.78-.59-1.75-.92-2.76-1.28-.97-.28-1.98-.59-2.83-1.13-1.18-.76-2.34-1.65-3.47-2.6-1.16-.92-2.34-1.94-3.61-2.95,1.42-1.7,2.76-3.35,4.09-4.96,1.3-1.56,2.53-3.14,3.76-4.58,2.13.9,4.11,1.75,6.07,2.6,1.94.8,3.76,1.61,5.62,2.41,1.7.76,3.05,1.77,4.2,3,1.09,1.28,1.94,2.72,2.62,4.32.76,1.82,1.51,2.88,2.5,3.19.97.24,2.2-.17,3.95-1.32,1.25-.85,2.36-1.18,3.26-.92.92.24,1.65,1.06,2.29,2.41.12.28.24.59.33.9.12.24.21.54.28.83.14.57.4.85.69.94.33.12.73.07,1.28-.12,1.44-.52,2.24-.78,2.93-.57.66.21,1.18.85,1.98,2.03.64,1.06,1.39,1.87,2.29,2.34.87.47,1.94.59,3.31.17,3.21,4.63,7.16,12.45,10.42,20.34,3.26,7.91,5.83,15.85,6.47,20.62-4.82,2.22-8.93,5.1-12.5,8.53-3.54,3.43-6.57,7.42-9.14,11.81-1.18-4.7-2.34-9.4-3.52-14.1-1.18-4.75-2.36-9.5-3.59-14.36,1.13,1.37,2.24,2.62,3.28,3.9,1.06,1.28,2.13,2.5,3.14,3.73.09-.05.17-.09.26-.12.07-.05.17-.09.21-.14-.31-.85-.64-1.7-.95-2.58-.33-.85-.66-1.75-1.09-2.55-2.5-5.08-5.06-10.11-7.58-15.21-2.55-5.03-5.1-10.11-7.68-15.17ZM355.64,186.42c1.13-4.91,2.79-9.8,4.77-14.58,1.7-4.09,3.4-8.17,5.43-12.1,2.03-3.92,4.39-7.7,7.37-11.17,2.15-2.5,4.54-4.8,7.11-6.73,2.62-1.98,5.5-3.69,8.69-4.96.12-.09.26-.09.43-.17.21-.05.47-.14.85-.26-.14,2.93-.26,5.81-.35,8.6-.12,2.83-.28,5.65-.59,8.39-.5,5.06-1.51,9.97-2.88,14.84-1.35,4.82-3.09,9.61-4.96,14.32-2.1,5.29-5.13,9.8-9.1,13.44-3.99,3.64-8.91,6.4-14.79,8.13-1.75.52-2.67.73-3.14.33-.5-.33-.59-1.23-.59-2.91-.09-5.17.59-10.23,1.75-15.17ZM351.39,207.73c2.55,1.18,5.08,2.1,7.8,2.74.21.05.52.21.76.43.26.21.43.47.43.69.05,1.54.09,3,.14,4.54,0,1.49-.05,3-.26,4.49-.12,1.13-.47,1.75-1.02,1.91-.54.17-1.28-.17-2.15-.9-3.02-2.41-5.6-5.03-7.84-8.01-2.22-2.95-3.99-6.24-5.29-9.99,2.48,1.56,4.94,2.95,7.44,4.11ZM337.38,218.15c-2.27-1.82-4.25-3.9-5.91-6.26-.92-1.37-1.61-2.86-2.24-4.37-.69-1.49-1.23-3.05-1.91-4.58.09,0,.19-.05.26-.07.09,0,.21-.05.31-.05,1.28.64,2.5,1.3,3.76,1.98,1.23.69,2.5,1.32,3.83,1.91,1.13.5,2.36.87,3.59,1.3,1.23.4,2.46.78,3.66,1.23.33.14.71.35,1.04.59.31.21.59.52.8.83,1.2,1.82,2.34,3.69,3.47,5.58,1.2,1.87,2.34,3.78,3.57,5.76-1.28,1.18-2.13,1.82-3.09,1.91-.92.12-2.03-.26-3.69-1.06-2.72-1.35-5.2-2.88-7.44-4.7Z"/><path class="cls-3" d="M289.21,86.99c-1.44,2.53-2.76,5.13-4.06,7.75-.12.26-.26.54-.4.8-.8,1.65-1.58,3.28-2.39,4.94h-.83c-.47-2.1-1.02-4.23-1.54-6.35-.4-1.72-.76-3.45-1.04-5.22-.05-.17-.07-.35-.07-.52-.05-.21-.09-.45-.12-.66-.59-4.51-.61-8.98-.05-13.39.43.47.83.95,1.23,1.44v.05c-.61,4.46-.52,9.05.45,13.77.07.43.17.85.28,1.28.38,1.68.87,3.38,1.51,5.08.38-.69.78-1.37,1.13-2.06.19-.33.38-.66.54-.97,1.37-2.53,2.72-5.03,4.06-7.51.43.52.85,1.06,1.28,1.58Z"/><path class="cls-1" d="M289.21,86.99c-1.44,2.53-2.76,5.13-4.06,7.75-.12.26-.26.54-.4.8-.8,1.65-1.58,3.28-2.39,4.94h-.83c-.47-2.1-1.02-4.23-1.54-6.35-.4-1.72-.76-3.45-1.04-5.22-.05-.17-.07-.35-.07-.52-.05-.21-.09-.45-.12-.66-.59-4.51-.61-8.98-.05-13.39.43.47.83.95,1.23,1.44v.05c-.61,4.46-.52,9.05.45,13.77.07.43.17.85.28,1.28.38,1.68.87,3.38,1.51,5.08.38-.69.78-1.37,1.13-2.06.19-.33.38-.66.54-.97,1.37-2.53,2.72-5.03,4.06-7.51.43.52.85,1.06,1.28,1.58Z"/></svg>