<?xml version="1.0" encoding="UTF-8"?><svg id="_レイヤー_1" xmlns="http://www.w3.org/2000/svg" viewBox="0 0 399.79 339.06"><defs><style>.cls-1,.cls-2,.cls-3{stroke-width:0px;}.cls-2{fill:#231916;}.cls-3{fill:#f39800;}</style></defs><path class="cls-1" d="M197.37,110.59c-.03-.21-.21-.39-.43-.57-.23-.18-.5-.38-.68-.58-.2-.21-.43-.45-.63-.68-.21-.23-.39-.46-.53-.73-.26-.49-.51-.97-.72-1.47-.24-.51-.43-1.01-.61-1.53-.2-.57-.38-1.16-.54-1.76-.16-.59-.31-1.18-.47-1.77-2.09.02-4.14.21-6.08.68-1.92.48-3.75,1.25-5.45,2.42-.97.68-1.92,1.42-2.85,2.15-.93.76-1.83,1.53-2.75,2.28-1.97,1.65-4.07,3-6.34,3.86-2.28.86-4.76,1.25-7.48.98-2.16-.21-4.2-.91-5.9-2.06-1.71-1.15-3.05-2.74-3.79-4.79-.3-.84-.39-1.67-.29-2.46.11-.8.43-1.59.97-2.34.77,1,1.83,1.65,3.02,1.95,1.18.31,2.47.23,3.69-.18,1.56-.54,2.91-1.33,4.05-2.31,1.17-.99,2.14-2.16,3-3.45.39-.59.75-1.22,1.11-1.86.34-.65.7-1.31,1.1-1.99,0,.21-.02.39-.02.55s0,.31.02.45c.09.81.16,1.63.25,2.46.09.82.18,1.65.3,2.47.06.38.22.61.47.74.25.11.59.09,1.02-.04,1.42-.43,2.55-1.13,3.5-2.02.93-.9,1.68-1.98,2.33-3.14,1.04-1.89,1.72-3.86,2.17-5.88.45-2.01.65-4.08.7-6.16.07-2.33.09-4.66.05-6.99-.03-2.32-.09-4.65-.16-6.98-.07-2.99-.3-5.97-.63-8.93-.34-2.98-.77-5.94-1.25-8.9-.52-3.15-1.15-6.27-2.03-9.34-.9-3.05-2.03-6.05-3.55-8.95-1.11-2.08-1.95-4.23-2.47-6.46-.54-2.22-.76-4.52-.6-6.89.04-.68-.05-1.38-.16-2.06-.11-.7-.25-1.4-.32-2.1-.04-.34-.14-.61-.32-.84-.2-.21-.45-.38-.78-.5-.3-.11-.62-.23-.93-.34-.32-.11-.64-.2-.97-.27-1.27-.27-2.53-.27-3.74-.13-1.24.15-2.46.45-3.66.83-1.44.46-2.89.73-4.36.84-1.45.13-2.94.06-4.43-.14-.85-.13-1.69-.25-2.53-.4-.86-.12-1.7-.27-2.55-.37-.63-.09-1.25-.09-1.88,0-.63.09-1.24.23-1.83.44,3.32.94,6.56,2.12,9.9,3,3.34.88,6.74,1.44,10.37,1.09-.2.2-.42.38-.61.52-.22.15-.43.26-.67.31-.64.09-1.29.21-1.93.3-.67.09-1.31.15-1.96.09-1.25-.07-2.53-.23-3.78-.37-1.26-.16-2.51-.33-3.79-.4-.79-.05-1.59-.02-2.4.04-.81.05-1.62.14-2.42.21-.15,0-.31.11-.43.22-.15.12-.27.29-.31.41-.02.09.06.22.16.36.11.13.27.25.4.34,1.79,1.18,3.6,2.37,5.41,3.55,1.8,1.17,3.61,2.35,5.42,3.54.16.1.32.21.49.32.16.11.32.21.48.32-.02.06-.04.09-.05.13-.02.03-.04.07-.06.1-.64-.17-1.29-.37-1.95-.59-.65-.19-1.35-.41-2.07-.63.72.49,1.39.97,2.05,1.42.66.45,1.29.9,1.95,1.31,1.1.74,2.19,1.45,3.3,2.17,1.12.72,2.23,1.42,3.32,2.14.76.46,1.33,1.07,1.81,1.72.49.66.88,1.36,1.33,2.04-.03.02-.07.06-.11.09-.03.02-.07.06-.1.07-.34-.39-.69-.79-1.03-1.18-.34-.39-.68-.79-1.02-1.18-.57.21-.9.3-1.16.21-.26-.09-.45-.36-.78-.88-.03-.07-.09-.16-.12-.23-.05-.07-.11-.14-.14-.22-.27-.34-.52-.53-.81-.59-.31-.05-.63.04-1.01.25-.1.07-.23.15-.34.24-.1.07-.21.14-.32.23-.56.38-1.02.54-1.38.47-.36-.09-.63-.42-.84-1.03-.42-1.13-1.01-2.01-1.82-2.69-.78-.7-1.79-1.18-2.97-1.52-.83-.25-1.58-.59-2.26-1.06-.7-.45-1.33-1-1.9-1.63-.4-.41-.85-.79-1.35-1.13-.5-.34-1.04-.63-1.58-.88-1.02-.47-2.08-.9-3.12-1.31-1.06-.43-2.11-.82-3.17-1.24-.27-.1-.52-.14-.76-.09-.23.04-.44.18-.62.42-.18.21-.36.43-.52.64-.18.22-.36.43-.56.63-.29.29-.54.43-.79.39-.23,0-.45-.21-.66-.55-.15-.24-.27-.47-.38-.74-.12-.27-.25-.55-.41-.88-.16.43-.31.81-.45,1.19-.14.39-.29.75-.43,1.13-.13-.22-.25-.43-.38-.63-.12-.2-.23-.4-.36-.59-.05,0-.1.02-.14.02-.05,0-.11.01-.14.01-.06.27-.09.54-.13.83-.05.3-.11.64-.16,1.04-.34-.36-.75-.68-1.08-.99-.34-.3-.57-.59-.62-.91-.06-.45.05-.92.19-1.42.17-.5.36-1.02.51-1.58.09.56.18,1.06.25,1.54.07.47.14.92.21,1.37h.34c.06-.16.11-.33.15-.49.05-.16.1-.32.16-.46.21-.72.55-1.37,1.02-1.87.48-.5,1.11-.84,1.96-.97.44-.07.93-.09,1.39-.07.49.02.95.07,1.44.13.43.05.84.14,1.29.27.45.1.93.23,1.45.35-.14-.21-.27-.39-.37-.53-.11-.16-.2-.31-.31-.43-.7-.85-1.54-1.47-2.47-1.98-.92-.5-1.94-.88-3-1.16-.82-.24-1.34-.54-1.56-.97-.21-.43-.14-1.01.2-1.76.29-.61.7-1.07,1.18-1.47.49-.39,1.04-.72,1.62-1.02,1.57-.86,3.24-1.51,4.95-2.05,1.7-.53,3.44-.96,5.2-1.38.77-.18,1.52-.37,2.29-.55.77-.18,1.53-.36,2.32-.56-.36-.52-.65-.84-1.01-.99-.34-.14-.75-.12-1.32.02-.56.11-1.1.24-1.65.34-.56.11-1.12.24-1.69.34-.41-1.07-1.08-1.77-1.92-2.22-.86-.47-1.87-.68-2.96-.83.23.24.47.47.7.69.22.23.41.44.57.7.2.3.31.64.29.96-.02.33-.18.65-.5.92-.31.27-.65.39-.99.39-.36.02-.7-.07-1.06-.25-.12-.07-.25-.16-.37-.25-.13-.09-.24-.18-.36-.27-.36-.27-.84-.41-1.35-.41-.5-.02-1.04.11-1.5.34-.45.25-.68.54-.77.88-.09.34-.06.72.05,1.13.05.2.13.41.2.61.07.21.14.41.19.63.18.62.08,1.16-.26,1.52-.33.36-.87.56-1.56.49-.15,0-.29-.04-.42-.09-.12-.04-.21-.08-.28-.09-.43,1.22-.85,2.44-1.28,3.67-.41,1.22-.84,2.44-1.25,3.66-.06.18-.15.36-.22.56-.05.18-.07.36-.02.5.24.52.24,1,.15,1.47-.07.49-.25.95-.34,1.44-.13.64-.27,1.27-.22,1.88.05.63.29,1.2.9,1.74.05.05.07.2.05.34,0,.14-.05.3-.11.41-1.05,2.12-1.77,4.29-2.17,6.49-.06.37-.12.74-.16,1.11.18.2.35.4.52.61.4-2.71,1.4-5.33,2.78-7.9,1.17.55,2.32,1.11,3.46,1.66,1.15.54,2.3,1.1,3.47,1.65-2.05,1.82-3.57,3.93-4.92,6.17-.49.82-.95,1.65-1.41,2.5.18.22.36.45.54.67.29-.51.58-1.01.89-1.5,1.42-2.29,3.1-4.45,5.33-6.26-.02,1.06-.09,2.1-.13,3.14-.04,1.02-.05,2.06,0,3.09.04,1,.16,2.01.31,3.01.14,1,.3,2.01.43,3.01h.35c.87-1.4,1.73-2.79,2.61-4.25.87-1.43,1.79-2.9,2.74-4.45.86,1.01,1.7,1.96,2.51,2.87.81.94,1.6,1.85,2.33,2.78,2.01,2.57,3.73,5.26,5.13,8.09,1.38,2.84,2.42,5.81,3.1,8.95.56,2.55,1.04,5.1,1.46,7.64.41,2.55.75,5.12,1.02,7.7.07.66.16,1.31.2,1.97.01.66-.04,1.33-.24,2.01-.28.97-.52,1.94-.71,2.92-.2.99-.36,1.98-.51,2.96-.14.9-.21,1.81-.27,2.75-.07.91-.1,1.88-.19,2.87-.68-.4-1.37-.77-2.03-1.15-.68-.38-1.34-.77-2.03-1.15-.3.45-.26.9-.16,1.36.11.47.27.95.25,1.44-1.22-.29-2.36-.68-3.46-1.24-1.09-.54-2.11-1.24-3.1-2.15-.31,2.62.14,4.86,1.17,6.8,1.02,1.95,2.63,3.6,4.66,5.09-.81,1.29-1.27,2.64-1.49,4-.22,1.38-.18,2.78.05,4.21.6,3.59,2.46,6.44,5.13,8.24,2.69,1.77,6.17,2.51,9.99,1.88,1.67-.29,3.23-.81,4.68-1.51,1.46-.71,2.8-1.59,4.11-2.56,1.13-.84,2.24-1.74,3.34-2.62,1.11-.88,2.2-1.78,3.35-2.62,1.08-.79,2.23-1.41,3.46-1.86,1.24-.47,2.57-.74,3.99-.85-1.83,2.87-3.54,5.78-4.69,8.85-1.14,3.06-1.75,6.31-1.43,9.9-.41-.94-.75-1.8-.92-2.66-.17-.86-.17-1.72.11-2.6.16-.52.31-1.02.47-1.52.14-.52.3-1.03.48-1.53.18-.52.4-1.04.59-1.58.22-.52.42-1.04.63-1.56-.37.38-.72.77-1.02,1.19-.32.41-.61.82-.88,1.25-1.04,1.62-1.86,3.28-2.33,5.04-.45,1.74-.56,3.57-.16,5.49.2.97.43,1.94.63,2.91.19.97.35,1.93.44,2.92.11,1.26.15,2.55.17,3.82.44-.45,1.02-.77,1.66-.97-.01-.5-.03-.98-.07-1.49-.09-1.63-.23-3.24-.64-4.84-.08-.29-.09-.59-.13-.88-.02-.3-.02-.61-.05-.9.05-.01.1-.01.14-.03.05-.02.11-.02.16-.04.07.13.16.24.23.34.09.13.17.24.2.36.16.56.36,1.1.52,1.65.16.54.31,1.1.4,1.67.19,1.22.32,2.46.46,3.7,0,.05.02.12.02.17,1.83-.28,4.05-.07,6.21.11.07-.16.14-.3.23-.45.52-.91.72-1.77.65-2.61-.06-.87-.38-1.71-.94-2.57-.84-1.34-1.66-2.69-2.47-4.05-.81-1.37-1.6-2.73-2.39-4.11-.41-.72-.75-1.47-.86-2.24-.11-.77,0-1.56.45-2.41.88-1.63,1.74-3.3,2.58-4.95.86-1.66,1.71-3.31,2.59-4.96.05-.13.17-.25.3-.36.13-.09.27-.18.4-.18.32-.06.64-.06.96-.06s.67.02,1.01.02c.2,1.63.37,3.28.97,4.77.61,1.47,1.65,2.78,3.6,3.72.06-.58.11-1.13.14-1.65.06-.52.08-1.03.02-1.53ZM134.74,28.77c-1-.43-2.01-.86-3.05-1.31.11-.29.2-.54.31-.83.11-.28.21-.59.34-.95.18.34.3.61.43.86.12.26.25.47.36.67.21.36.45.55.7.59s.52-.09.82-.39c.18-.17.32-.36.47-.56.16-.2.3-.41.45-.61.32-.39.57-.63.86-.68.27-.04.59.07,1.04.34.27.16.52.3.79.45.27.16.55.3.84.46-.23.54-.45,1.06-.68,1.58-.22.54-.45,1.08-.7,1.63-1.01-.41-1.99-.84-2.98-1.25ZM141.86,36.66c-1.36,2.22-2.63,4.47-4.03,6.67-.27-1.16-.45-2.33-.56-3.5-.09-1.14-.11-2.29,0-3.46.09-1.29.32-2.54.65-3.8.32-1.24.75-2.46,1.22-3.68.01-.03.03-.07.05-.1.02-.06.04-.09.05-.13.43-.91.88-1.45,1.44-1.63.55-.18,1.24,0,2.13.54.65.37,1.24.8,1.83,1.25.61.45,1.2.9,1.81,1.35-1.77,2.08-3.22,4.27-4.59,6.49ZM156.12,42.9c-.16-.32-.36-.61-.61-.86-.25-.23-.55-.45-.93-.63-.34-.16-.65-.41-.93-.71-.29-.29-.56-.61-.88-.9-.2.2-.4.41-.59.61-.2.2-.4.39-.63.55-.07.06-.25.09-.42.09-.16,0-.32-.03-.37-.09-.29-.34-.52-.71-.77-1.07-.25-.36-.52-.72-.86-.97-.33-.25-.74-.39-1.17-.54-.41-.12-.84-.25-1.2-.48-.5-.32-.99-.7-1.47-1.1-.49-.39-.99-.82-1.53-1.25.6-.72,1.17-1.42,1.73-2.1.55-.66,1.07-1.33,1.59-1.94.9.38,1.74.74,2.57,1.1.82.34,1.59.68,2.38,1.02.72.32,1.29.75,1.78,1.27.46.54.82,1.15,1.11,1.83.32.77.64,1.22,1.06,1.35.41.1.93-.07,1.67-.56.53-.36,1-.5,1.38-.39.39.1.7.45.97,1.02.05.12.1.25.14.38.05.1.09.23.12.35.06.24.17.36.29.4.14.05.31.03.54-.05.61-.22.95-.33,1.24-.24.28.09.5.36.84.86.27.45.59.79.97.99.37.2.82.25,1.4.07,1.36,1.96,3.03,5.27,4.41,8.61,1.38,3.35,2.47,6.71,2.74,8.73-2.04.94-3.78,2.16-5.29,3.61-1.5,1.45-2.78,3.14-3.87,5-.5-1.99-.99-3.98-1.49-5.97-.5-2.01-1-4.02-1.52-6.08.48.58.95,1.11,1.39,1.65.45.54.9,1.06,1.33,1.58.04-.02.07-.04.11-.05.03-.02.07-.04.09-.06-.13-.36-.27-.72-.4-1.09-.14-.36-.28-.74-.46-1.08-1.06-2.15-2.14-4.28-3.21-6.44-1.08-2.13-2.16-4.28-3.25-6.42ZM158.78,82.92c.48-2.08,1.18-4.15,2.02-6.17.72-1.73,1.44-3.46,2.3-5.12.86-1.66,1.86-3.26,3.12-4.73.91-1.06,1.92-2.03,3.01-2.85,1.11-.84,2.33-1.56,3.68-2.1.05-.04.11-.04.18-.07.09-.02.2-.06.36-.11-.06,1.24-.11,2.46-.15,3.64-.05,1.2-.12,2.39-.25,3.55-.21,2.14-.64,4.22-1.22,6.28-.57,2.04-1.31,4.07-2.1,6.06-.89,2.24-2.17,4.15-3.85,5.69-1.69,1.54-3.77,2.71-6.26,3.44-.74.22-1.13.31-1.33.14-.21-.14-.25-.52-.25-1.23-.04-2.19.25-4.33.74-6.42ZM156.98,91.94c1.08.5,2.15.89,3.3,1.16.09.02.22.09.32.18.11.09.18.2.18.29.02.65.04,1.27.06,1.92,0,.63-.02,1.27-.11,1.9-.05.48-.2.74-.43.81-.23.07-.54-.07-.91-.38-1.28-1.02-2.37-2.13-3.32-3.39-.94-1.25-1.69-2.64-2.24-4.23,1.05.66,2.09,1.25,3.15,1.74ZM151.05,96.35c-.96-.77-1.8-1.65-2.5-2.65-.39-.58-.68-1.21-.95-1.85-.29-.63-.52-1.29-.81-1.94.04,0,.08-.02.11-.03.04,0,.09-.02.13-.02.54.27,1.06.55,1.59.84.52.29,1.06.56,1.62.81.48.21,1,.37,1.52.55.52.17,1.04.33,1.55.52.14.06.3.15.44.25.13.09.25.22.34.35.51.77.99,1.56,1.47,2.36.51.79.99,1.6,1.51,2.44-.54.5-.9.77-1.31.81-.39.05-.86-.11-1.56-.45-1.15-.57-2.2-1.22-3.15-1.99Z"/><path class="cls-2" d="M342.94,117.48c-1.67-7.28-10.89-12.29-18.17-12.95l-.68-.04c-21.74.65-45.24,1.8-67.28,4.67-1.06.09-2.17.14-3.3.18.23-.27.45-.52.65-.79,2.22-2.86,4.09-5.92,5.4-9.37.55-1.45,1.2-2.88,1.65-4.35.44-1.46.7-2.96.48-4.58-.02-.12,0-.25.02-.37.02-.13.05-.27.07-.4.2-1.06.61-2.04,1.08-2.99.48-.95,1.05-1.87,1.57-2.8.33-.58.58-1.17.7-1.78.15-.59.17-1.22.02-1.86-.59-2.55-1.33-5.04-2.19-7.52-.59-1.69-1.23-3.36-1.92-5.01-.3-.77-.63-1.53-.96-2.29-.04-.09-.09-.14-.13-.21-.05-.08-.11-.15-.14-.22-.06.16-.07.31-.07.43,0,.05,0,.09.01.13,0,.1.01.18.02.27.22,1,.45,2.01.66,3.01.22,1,.44,2.03.63,3.03.22,1.05.35,2.09.32,3.13,0,.15,0,.3-.01.44-.06,1.18-.31,2.37-.79,3.52-.32.75-.81,1.38-1.38,1.97-.59.57-1.28,1.11-1.99,1.72-.03-.24-.05-.45-.08-.66-.04-.29-.07-.56-.1-.83-.07-.45-.11-.88-.13-1.29,0-.72.04-1.43.06-2.15,0-.72.03-1.44-.02-2.14-.2-2.65-.79-5.2-1.71-7.62-.91-2.42-2.17-4.73-3.73-6.94-1.23-1.72-2.67-3.25-4.23-4.66-1.58-1.42-3.26-2.73-4.97-4.02-.11-.07-.23-.2-.32-.31-.09-.12-.16-.23-.14-.32.11-.46.23-.91.35-1.37.04-.13.07-.27.11-.4.18-.6.34-1.19.52-1.78.06-.02.11-.04.18-.04.06-.01.13-.03.18-.05.17.21.34.42.51.63.49.62.98,1.23,1.46,1.85.67.82,1.33,1.66,1.98,2.49-.15-1.28-.4-2.53-.81-3.77-.35-1.01-.8-2.01-1.4-2.99-.13-.23-.28-.46-.43-.68.39-.09.75-.22,1.08-.31.34-.07.64-.14.95-.09.45.07.89.2,1.34.36s.88.34,1.28.56c.69.35,1.21.8,1.57,1.36.34.55.52,1.22.51,2.01-.02.45.01.89.07,1.36.07.45.16.9.3,1.33.31,1.07.88,1.99,1.56,2.83.5.6,1.05,1.17,1.62,1.71.23.23.47.44.7.66.87.82,1.72,1.65,2.53,2.51.93.99,1.81,2.01,2.61,3.08,1.53,2,2.8,4.15,3.72,6.5.64,1.67,1.2,3.37,1.72,5.09.52,1.72,1,3.44,1.52,5.17.04.13.08.26.12.4.17.55.31,1.1.46,1.68.18.71.36,1.45.57,2.22.47-.9.79-1.77.95-2.64.16-.86.16-1.74-.05-2.61-.52-2.32-1.1-4.63-1.81-6.89-.72-2.26-1.56-4.5-2.68-6.66-.61-1.2-1.16-2.43-1.48-3.69-.33-1.27-.42-2.6-.06-3.98.02-.09.02-.22-.02-.32-.03-.11-.09-.24-.12-.33-.49-.98-.93-1.95-1.42-2.94-.47-.97-.97-1.94-1.51-2.87-.68-1.16-1.39-2.31-2.15-3.44-.73-1.13-1.5-2.24-2.29-3.34-.4-.55-.88-1.06-1.37-1.52-.5-.49-1-.95-1.49-1.42.42-.31.84-.63,1.27-.92.23-.17.47-.32.71-.46.61-.35,1.24-.59,1.97-.68.11-.02.22-.03.34-.04.05,0,.13-.02.18-.03.05-.02.11-.06.16-.09,1.62-.95,3.03-2.05,4.22-3.34,1.16-1.29,2.1-2.76,2.72-4.48.16-.51.34-1.01.54-1.51.18-.5.4-.99.65-1.45.89-1.69,1.32-3.36,1.27-5.01s-.57-3.28-1.58-4.89c-.27-.45-.61-.86-1-1.26-.38-.39-.79-.75-1.2-1.09-.43-.36-.88-.67-1.37-.95-.46-.29-.95-.58-1.41-.88-.7-.45-1.42-.88-2.19-1.17-.76-.3-1.58-.46-2.46-.41-2.17.14-4.36.25-6.51.39-2.17.15-4.34.31-6.51.54-1.11.13-2.26.22-3.35.52-.74.22-1.45.53-2.08,1.03-.29.21-.56.47-.81.77-.09-.12-.17-.23-.26-.35-.47-.62-.91-1.25-1.23-1.91-.38-.78-.59-1.62-.45-2.61.05-.34.04-.69.04-1.05-.02-.36-.06-.72-.04-1.08.02-.29-.05-.52-.2-.7-.12-.16-.34-.29-.64-.34-1.53-.32-3.03-.39-4.58-.29-1.52.11-3.08.4-4.7.79.81.08,1.6.16,2.38.24.61.07,1.22.13,1.82.19,1.24.14,2.47.27,3.7.39.12.02.24.03.36.04v3.11c0,.51.01,1.02.01,1.52h0c0,.51-.01,1-.01,1.51-.02,1.22-.08,2.45-.11,3.67-.04,1.24-.07,2.46-.06,3.7,0,.34.04.77.15,1.15.09.37.25.71.5.91.48.4.65.75.63,1.11-.02.36-.22.72-.42,1.12-.09.16-.17.34-.25.5-.09.18-.16.34-.23.52-.31.68-.53,1.27-.64,1.82-.11.56-.12,1.06-.01,1.55.22.95.87,1.81,2.03,2.83.36.34.74.54,1.08.6.32.05.61-.06.8-.31.29-.36.26-.63.08-.86-.17-.22-.47-.39-.69-.57-.59-.49-1.09-1.03-1.39-1.6-.31-.59-.42-1.26-.17-2.01.17-.47.4-.93.67-1.36.29-.45.59-.88.89-1.29.47-.63.7-.99.7-1.33.02-.36-.19-.72-.66-1.31-.05-.07-.11-.14-.18-.22-.05-.07-.09-.14-.11-.21-.09-.57-.21-1.15-.28-1.72-.09-.59-.15-1.15-.07-1.71.03-.27.28-.55.6-.79.17-.12.35-.23.52-.33,0,0,.01,0,.02-.01.19-.11.37-.2.54-.28,1.13-.56,2.28-1.12,3.44-1.64,1.15-.53,2.32-1.04,3.48-1.52,1.47-.61,2.96-1.15,4.51-1.52.54-.14,1.1-.26,1.66-.35,1.01-.18,2.05-.29,3.11-.3.42,0,.84.01,1.24.04h.02c.4.03.8.07,1.18.13.96.15,1.87.4,2.72.74,1.54.65,2.91,1.6,4.09,2.89,1.76,1.89,2.67,3.89,2.91,5.99.21,2.1-.25,4.29-1.31,6.51-.13.27-.25.52-.36.79-.11.27-.22.54-.31.81-.42,1.33-1.07,2.52-1.91,3.55-.04.06-.09.11-.13.16-.92,1.1-2.03,2.03-3.28,2.85-.25.18-.56.31-.88.42-.17.05-.34.1-.51.15-.15.04-.3.09-.44.15-.38.13-.77.23-1.13.34-.38.13-.74.27-1.04.49-.38.27-.74.43-1.11.5-.38.07-.76.03-1.19-.07-.27-.08-.54-.16-.79-.24-.27-.07-.54-.14-.79-.23-.39-.13-.73-.13-1.05-.04-.31.11-.58.31-.83.6-.1.13-.21.26-.3.39-.04.05-.08.11-.11.16-.13.2-.25.4-.36.59-.74,1.3-1.24,2.01-1.94,2.37-.33.16-.69.25-1.15.28-.52.05-1.16.02-2-.04-.02,0-.06,0-.09.01-.04.02-.08.06-.13.07l-.42.99c-.33.8-.67,1.6-1.01,2.4-.47,1.15-.97,2.28-1.48,3.41-.12.29-.14.49-.07.67.07.18.25.32.49.5.1.08.21.16.31.23,1.1.84,2.19,1.68,3.27,2.51,1.19.93,2.35,1.87,3.5,2.84,1.08.89,1.85,1.93,2.33,3.08.19.44.34.89.44,1.36h0c.18.77.24,1.57.21,2.39-.07,1.63-.16,3.25-.29,4.88-.11,1.63-.23,3.24-.36,4.88-.05.95-.16,1.9-.23,2.85-.09.95-.16,1.92-.2,2.87-.01,1,.22,1.76.72,2.29.5.54,1.27.88,2.33,1.01.49.07.97.09,1.45.11.51,0,.99,0,1.48.03.18,0,.35.02.57.05.01.01.03.01.04.01.08,0,.17.01.27.02.15.02.33.05.53.07-.34.23-.63.41-.89.59s-.49.34-.72.48c-1.53,1.01-3.12,1.9-4.66,2.87-1.55.95-3.07,1.97-4.44,3.19-1.23,1.12-2.43,2.26-3.51,3.5-1.09,1.22-2.08,2.51-2.87,3.95-.97,1.68-2.04,3.3-3.21,4.84-1.15,1.51-2.38,2.96-3.66,4.4-.03.03-.06.07-.09.1-.07.07-.14.16-.21.25-.08.11-.13.2-.2.29,1.38-.88,2.72-1.76,4.02-2.71,1.27-.95,2.49-1.97,3.6-3.12,1.45-1.54,2.91-3.08,4.38-4.63,1.49-1.52,2.97-3.03,4.53-4.48,1.83-1.67,3.7-3.3,5.6-4.9l5.7-4.79c.39-.33.77-.64,1.17-.95.12-.1.25-.2.38-.3.53-.43,1.09-.86,1.68-1.33-.05.92-.23,1.74-.5,2.49-.29.78-.68,1.46-1.17,2.1-.91,1.19-1.56,2.46-1.99,3.77-.44,1.33-.68,2.71-.75,4.12-.05,1.22-.39,2.23-.99,3.07-.59.86-1.43,1.54-2.52,2.14-1.51.82-3.02,1.65-4.52,2.49-1.49.82-2.98,1.68-4.43,2.56-2,1.21-3.97,2.41-5.92,3.63-1.96,1.22-3.91,2.45-5.89,3.66-.18.1-.36.19-.57.28-.22.09-.47.18-.74.31,0,0,.01-.02.01-.03.22-.55.6-.97.89-1.41.32-.46.56-.95.5-1.61-.3.18-.59.32-.86.46-.25.15-.48.29-.7.47-.15.12-.3.25-.44.37-.85.73-1.69,1.48-2.53,2.21-.79.69-1.56,1.37-2.34,2.07l.43.46c.56.64,1.02,1.29,1.38,1.96.06.1.12.2.17.3,1.97-1.43,3.98-2.83,6.02-4.18,2.46-1.59,5.01-3.06,7.57-4.5,2.58-1.45,5.19-2.85,7.75-4.3.21-.13.42-.24.64-.35.19-.1.39-.2.6-.3.43-.23.89-.47,1.41-.72-.08.2-.16.33-.19.43-.06.11-.09.18-.13.26-1.09,1.84-2.33,3.58-3.71,5.2-.48.55-.97,1.09-1.47,1.61-.4.02-.78.05-1.14.08-.33.02-.63.06-.92.1-1.35.18-2.2.53-2.39,1.06-.02.04-.03.09-.04.14-.07.47.29,1.08,1.05,1.78-2.48,2.06-5.1,3.96-7.79,5.77-1.85,1.24-3.75,2.42-5.67,3.57.2,1.47.31,2.91.58,4.22,1.11-.48,2.2-.97,3.28-1.49,1.59-.77,3.13-1.58,4.63-2.48,2.68-1.57,5.17-3.4,7.45-5.59.03-.02.05-.04.08-.07l1.29-1.3c6.67,4,14.3,6.68,21.56,5.22,13.07-2.45,23.01-4.32,38.15-4.5,6.47-.39,15.5.34,9.2,8.02-3.8,4.63-8.65,10.3-13.67,12.31-1.24.5-2.49.78-3.73.76-4.41.19-13.87-3.97-16.81-.89-.87.9-1.17,2.42-.62,4.86,5.47,12.8,1.7,26.27-4.5,38.88-1.98,3.82-4.72,7.61-7.43,10.71-3.75,4.14-5.09,7.53,2.24,5.67,2.12-.58,4.07-1.29,5.87-2.1.03-.01.05-.03.08-.04,15.85-7.27,20.2-23.51,23.72-39.99,1.29-4.34,4.35-6.99,8.11-9.02.9-.48,1.84-.93,2.8-1.37h.01c7.45-3.55,14.31-8.63,20.27-13.75,4.91-4.04,10.26-8.18,9.65-12.63ZM251.05,43.96c-.44-.14-.89-.29-1.38-.43.15-.2.29-.36.43-.54.13-.16.27-.34.45-.55.32.3.65.61.97.91.31.31.61.59.92.88-.02.04-.02.05-.04.07-.02.02-.04.05-.05.07-.43-.14-.87-.27-1.3-.41ZM258.17,50.97c.36.51.63,1.06.83,1.69.03.09.06.19.09.28.2.6.45,1.19.7,1.76.29.69.59,1.37.82,2.05.15.41.24.84.31,1.27.09.41.14.86.23,1.28-.05.01-.09.03-.14.05-.06,0-.09.02-.14.03-.85-.65-1.66-1.32-2.4-2.02-1.05-.99-1.96-2.05-2.66-3.21-.73-1.21-1.24-2.52-1.43-3.99-.12-.93-.11-1.92.06-2.99.4.41.79.84,1.19,1.26.39.39.79.8,1.24,1.14.19.16.38.33.55.5.29.29.54.59.75.9ZM255.48,79.83c-.19-.49-.37-.99-.52-1.5-.52-1.67-.85-3.39-1.13-5.12-.27-1.64-.5-3.3-.79-4.93-.11-.59-.22-1.18-.35-1.77.95,2.13,1.83,4.26,2.38,6.47.54,2.21.77,4.48.41,6.85Z"/><path class="cls-3" d="M186.46,99.55c1.43-.4,2.44-1.03,3.05-1.94s.82-2.09.67-3.59c-.1-.98-.19-1.96-.28-2.94s-.14-1.96-.17-2.95c-.02-.65.03-1.31.1-1.97s.14-1.31.16-1.97c.03-.82-.04-1.61-.31-2.35s-.77-1.42-1.59-2.03c.05,1.03-.07,1.97-.37,2.87s-.77,1.75-1.4,2.61c-.01-.19-.03-.33-.05-.46s-.02-.23-.01-.33c.16-1.83.13-3.63-.04-5.43s-.51-3.58-.99-5.36c-.49-1.84-.77-3.69-.79-5.54s.24-3.71.83-5.56c.28-.88.69-1.61,1.29-2.16s1.38-.92,2.42-1.08c.74-.11,1.4-.39,1.97-.78s1.08-.89,1.53-1.43c1.15-1.41,2.44-2.64,3.89-3.68s3.05-1.9,4.82-2.55c.91-.33,1.58-.82,2.02-1.45s.64-1.4.61-2.28c-.02-.64-.08-1.28-.16-1.92s-.17-1.28-.27-1.91c-.12-.8-.11-1.28.13-1.51s.72-.21,1.55,0c.7.17,1.23.18,1.68,0s.83-.54,1.23-1.11c1.31-1.89,2.66-3.76,4.02-5.61s2.74-3.71,4.1-5.57c.05-.07.1-.15.16-.22s.12-.13.19-.16c.98-.37,1.55-.95,1.89-1.65s.44-1.52.48-2.35c.02-.33.08-.57.21-.78s.32-.39.61-.57c1.18-.76,2.04-1.71,2.69-2.78s1.09-2.27,1.42-3.51c.15-.55.29-1.11.4-1.67s.22-1.12.3-1.69c.16-1.16-.02-2.2-.46-3.15s-1.14-1.79-2.04-2.56c-.13-.11-.26-.22-.39-.33s-.26-.22-.39-.33c.02-.03.04-.07.06-.1s.04-.07.06-.1c.66.25,1.32.5,1.98.75s1.31.5,1.96.78c.42.17.67.41.81.72s.16.68.09,1.11c-.24,1.55-.47,3.11-.68,4.67s-.4,3.12-.57,4.68c-.18,1.66-.08,3.3.2,4.91s.73,3.21,1.24,4.79c.04.12.05.28.03.43s-.07.29-.16.38c-1.8,1.87-3.32,3.9-4.69,6.03s-2.58,4.33-3.75,6.57c-.41.79-.79,1.61-1.17,2.42s-.75,1.62-1.16,2.42c-.08.15-.21.29-.37.41s-.35.21-.52.27c-.88.28-1.77.53-2.67.79s-1.78.52-2.64.85c-1.07.4-1.92,1.03-2.6,1.8s-1.2,1.67-1.61,2.64c-.29.69-.58,1.38-.84,2.08s-.48,1.41-.65,2.13c-.27,1.15-.8,2.03-1.55,2.67s-1.72,1.05-2.87,1.27c-1.03.2-2.08.34-3.12.47s-2.1.25-3.14.4c-.24.03-.48.08-.72.13s-.47.11-.71.17c-1.01.27-1.74.7-2.2,1.32s-.65,1.4-.56,2.38c.12,1.44.4,2.84.78,4.22s.86,2.73,1.4,4.07c.74,1.84,1.55,3.67,2.26,5.52s1.33,3.73,1.7,5.69c.37,1.96.72,3.92.88,5.89s.13,3.95-.25,5.95c-.16.85-.38,1.37-.77,1.64s-.96.28-1.82.09c-1.04-.23-2.08-.47-3.12-.71s-2.07-.49-3.11-.73c-.02,0-.05-.03-.07-.05s-.04-.05-.06-.07Z"/><path class="cls-1" d="M182.29,57.88c.28-.55.57-1.09.85-1.64s.57-1.09.86-1.64c1.12-2.12,2.38-4.16,3.75-6.14,1.37-1.97,2.86-3.88,4.44-5.72.43-.5.84-1.03,1.14-1.59s.49-1.18.49-1.87c0-.69-.25-1.36-.68-1.92s-1.03-.99-1.73-1.21c-.5-.15-1.02-.15-1.5.02s-.91.51-1.25,1.03c-.56.87-1.1,1.75-1.63,2.63s-1.04,1.78-1.56,2.67c-.24.41-.46.83-.7,1.26s-.49.85-.81,1.27c-.04-.44-.11-.88-.16-1.32s-.09-.88-.08-1.32c.02-1.03.05-2.05.09-3.08s.11-2.05.23-3.07c.06-.53.16-.81.37-.88s.51.08.96.41c.28.2.51.24.69.18s.32-.22.4-.43c.29-.78.57-1.56.83-2.35s.51-1.58.72-2.38c.06-.22.04-.49-.02-.75s-.18-.52-.32-.72c-.7-.99-1.48-1.91-2.39-2.7s-1.95-1.43-3.16-1.88c-.71-.26-1.36-.21-1.83.09s-.79.85-.83,1.56c-.01.21,0,.43.02.64s.05.43.07.64c.04.42-.06.76-.27,1.01s-.53.4-.94.44c-1.15.11-1.86.13-2.34-.13s-.74-.8-1-1.8c-.54-2.11-1.06-4.22-1.58-6.34s-1.04-4.23-1.57-6.34c-.2-.78-.43-1.54-.67-2.31s-.49-1.53-.72-2.3c-.04-.14-.07-.29-.09-.44s-.02-.3-.02-.45c.87,1.28,1.69,2.58,2.33,3.94s1.09,2.79,1.24,4.35c.06.62.22,1.22.41,1.83s.41,1.2.6,1.81c.04.13.11.25.19.37s.17.23.24.35c.05-.01.1-.03.15-.04s.1-.03.15-.04c-.14-.56-.28-1.12-.42-1.68s-.28-1.12-.42-1.68c.02-.02.05-.03.07-.05s.05-.03.07-.05c.15.21.31.41.46.62s.31.41.47.62c.27.36.53.73.8,1.09s.55.71.87,1.03c.34.34.74.51,1.16.54s.87-.07,1.3-.28c.4-.19.63-.46.75-.78s.13-.68.11-1.06c-.07-.93-.05-1.41.22-1.59s.8-.06,1.75.22c.85.25,1.48.63,1.9,1.15s.66,1.17.72,1.96c.02.26.06.51.11.77s.08.51.1.77c.08.94.34,1.76.8,2.48s1.12,1.32,1.98,1.81c.79.44,1.56.91,2.34,1.36s1.57.89,2.39,1.27c1.15.54,2.32.42,3.15-.14s1.35-1.55,1.22-2.75c-.05-.4.01-.74.15-1.05s.36-.59.64-.86c.51-.49.99-1,1.35-1.57s.58-1.2.57-1.92c0-.41-.06-.82-.12-1.23s-.13-.82-.19-1.23c0-.01,0-.03-.01-.04s0-.03-.01-.04c-.07-.62-.24-1.26-.21-1.86s.27-1.15.99-1.57c.78-.46,1.58-.68,2.39-.66s1.6.26,2.38.75c.43.27.85.56,1.26.86s.81.61,1.2.93c1.23,1,1.82,1.47,2.42,1.52s1.21-.33,2.5-1.05c.15.38.3.75.45,1.13s.28.75.39,1.13c.03.1-.02.24-.1.38s-.19.27-.3.35c-1.28.94-2.56,1.87-3.84,2.8s-2.57,1.85-3.86,2.77c-.49.35-.92.7-1.27,1.12s-.59.91-.7,1.53c-.06.31-.25.61-.49.9s-.54.55-.81.79c-.4.35-.83.67-1.27.98s-.89.61-1.34.9c-.52.34-.92.74-1.18,1.21s-.4.98-.39,1.56c.02,1.07.06,2.14.11,3.21s.11,2.14.15,3.21c0,.19.02.37.04.56s.05.37.08.55c.04.23.01.41-.08.55s-.27.25-.51.34c-1.24.49-2.35,1.11-3.29,1.9s-1.71,1.76-2.27,2.95c-.41.85-.93,1.63-1.57,2.31s-1.4,1.26-2.29,1.71c-.88.45-1.65,1.01-2.35,1.64s-1.34,1.31-1.95,2.04c-.23.27-.51.51-.81.74s-.6.44-.88.68c-.04-.04-.08-.07-.13-.11s-.08-.07-.13-.11Z"/><path class="cls-1" d="M239.4,40.78c-.33-.32-.65-.63-.97-.94s-.62-.62-.92-.94c-.06-.06-.07-.18-.06-.31s.05-.27.1-.37c.23-.51.47-1.02.71-1.53s.49-1.01.76-1.51c.12-.23.18-.43.17-.63s-.1-.39-.28-.61c-.43-.52-.85-1.05-1.25-1.59s-.8-1.08-1.18-1.63c-.1-.14-.18-.33-.22-.52s-.04-.39,0-.55c.31-1.1.56-2.24.86-3.35s.66-2.2,1.19-3.21c1.06-2.01,2.54-3.48,4.36-4.46s3.95-1.49,6.3-1.59c1.67-.07,3.23.14,4.6.73s2.53,1.53,3.4,2.93c1.41,2.25,1.97,4.26,1.73,6.17s-1.3,3.72-3.1,5.57c-.95.97-2.06,1.47-3.27,1.64s-2.5.01-3.81-.33c-.4-.1-.82-.16-1.24-.19s-.85-.02-1.26,0c-.29.02-.51.13-.62.32s-.11.44.06.75c.12.23.22.47.31.71s.18.48.28.72c.2.51.23,1.03.12,1.51s-.39.91-.8,1.24c-.4.32-.79.5-1.2.52s-.84-.11-1.32-.39c-.58-.33-.96-.49-1.31-.44s-.65.31-1.07.81c-.19.22-.35.45-.52.7s-.34.51-.54.79Z"/><path class="cls-1" d="M231.31,41.03h3.31c-.58,1.13-1.18,2.25-1.76,3.36s-1.16,2.23-1.7,3.36c-1.81,3.74-3.73,7.42-5.76,11.06-2.03,3.63-4.15,7.22-6.35,10.77-.9,1.45-1.8,2.89-2.69,4.34s-1.78,2.9-2.67,4.35c-.19.31-.37.63-.53.95s-.3.66-.42.99c-.31.87-.27,1.64.08,2.25s1.02,1.06,1.98,1.31c.5.13,1,.21,1.53.29s1.08.14,1.66.24c-.81,1.42-1.7,2.77-2.81,3.92s-2.44,2.08-4.13,2.64c-2,.67-3.93.75-5.81.41s-3.69-1.1-5.45-2.08c.62.08,1.25.17,1.87.26s1.25.15,1.88.18c.54.02,1.09,0,1.64-.04s1.09-.11,1.63-.2c.4-.07.73-.23.95-.48s.37-.6.4-1.02c.06-.72-.02-1.4-.23-2.04s-.55-1.24-1-1.81c-.17-.21-.25-.39-.25-.56s.09-.34.25-.56c1.82-2.46,3.59-4.95,5.24-7.5,1.65-2.55,3.19-5.17,4.57-7.87.76-1.49,1.47-3.01,2.16-4.54s1.38-3.05,2.1-4.56c.06-.13.19-.25.33-.35s.31-.19.45-.29c.26-.17.55-.3.82-.45s.54-.31.76-.51c.91-.86,1.63-1.83,2.26-2.86s1.14-2.11,1.63-3.2c.67-1.49,1.29-2.99,1.9-4.5s1.21-3.02,1.83-4.52c.05-.13.11-.26.17-.38s.11-.23.15-.33Z"/><path class="cls-1" d="M189.92,19.66c.14-.14.26-.28.37-.4s.22-.22.35-.27c.79-.32,1.35-.79,1.76-1.36s.67-1.24.85-1.96c.14-.57.29-1.14.41-1.71s.21-1.15.26-1.73c.06-.77-.16-1.41-.56-1.95s-.98-.99-1.63-1.37c-.11-.06-.29-.09-.46-.09s-.35.05-.45.12c-.69.53-1.33.59-1.96.45s-1.25-.5-1.89-.8c.23-.08.46-.18.69-.27s.46-.16.7-.19c.94-.1,1.87-.16,2.77-.04s1.76.42,2.55,1.03c.18.14.36.27.55.39s.39.23.6.31c.13.05.28.06.43.06s.32-.02.47-.02c-.04-.17-.05-.37-.07-.55s-.07-.34-.18-.44c-.19-.17-.42-.29-.67-.41s-.53-.23-.81-.37c1.21-.1,2.34,0,3.44.24s2.17.57,3.23.93c1.56.53,3.14.98,4.74,1.34s3.23.62,4.88.77c.77.07,1.28.02,1.7-.2s.73-.61,1.12-1.22c.16-.25.37-.48.62-.69s.52-.39.79-.53c.64-.32,1.3-.62,1.97-.91s1.35-.57,2.03-.87c.19.94.58,1.77,1.05,2.55s1.04,1.51,1.58,2.25c.21.28.4.57.58.87s.34.61.47.92c.11.27.18.58.13.86s-.2.52-.53.66c-.21.08-.47.09-.73.06s-.54-.11-.78-.18c-.31-.1-.61-.25-.9-.4s-.59-.31-.9-.43c-.2-.08-.41-.12-.65-.16s-.5-.08-.78-.13c.06.18.1.32.14.43s.07.2.11.29c.32.68.3,1.28,0,1.72s-.91.72-1.75.77c-.9.05-1.78,0-2.64-.17s-1.69-.45-2.5-.85c-.73-.36-1.47-.69-2.22-1.02s-1.5-.65-2.24-.99c-.17-.08-.35-.17-.51-.28s-.31-.23-.42-.37c-1.06-1.25-2.58-1.77-4.1-1.84s-3.02.33-4.04.91c-.33.19-.6.49-.84.83s-.45.72-.65,1.06c-.36.6-.7,1.2-1.03,1.81s-.66,1.22-1.01,1.83c-.36.64-.84,1.11-1.42,1.4s-1.25.4-2.01.31Z"/><path class="cls-3" d="M213.98,97.9c.95.82,1.73,1.26,2.55,1.35s1.7-.16,2.84-.75c.88-.45,1.66-1,2.35-1.62s1.32-1.33,1.88-2.1c.55-.75.76-1.54.81-2.35s-.03-1.64-.08-2.46c0-.14-.02-.29-.04-.43s-.04-.28-.06-.42c-.07-.4-.05-.73.1-1.02s.4-.55.78-.81c.85-.57,1.47-1.3,1.94-2.11s.78-1.71,1-2.61c.32-1.3.58-2.62.83-3.93.25-1.32.48-2.63.74-3.95.42.49.72,1.05.91,1.66s.28,1.26.27,1.92c-.01.95-.08,1.91-.16,2.86s-.17,1.91-.23,2.86c-.02.37-.02.74,0,1.11s.04.74.08,1.11c.01.14.08.28.16.43s.2.33.31.55c.17-.19.32-.34.45-.48s.24-.26.31-.4c.1-.18.18-.36.25-.55s.13-.38.19-.57c.31-.98.77-1.84,1.4-2.56s1.44-1.32,2.46-1.77c.81-.36,1.59-.75,2.38-1.15s1.59-.78,2.42-1.13c-.76.93-1.53,1.85-2.29,2.77s-1.52,1.85-2.27,2.78c-1.61,2.01-3.22,4.03-4.82,6.05s-3.21,4.04-4.83,6.05c-1.08,1.35-2.3,2.54-3.69,3.5s-2.95,1.69-4.73,2.13c-1.46.36-2.68.07-3.46-.65s-1.1-1.9-.76-3.31Z"/><path class="cls-1" d="M240.44,88.21c-1.01,1.59-1.99,3.19-3,4.79-1,1.59-2.03,3.19-3.08,4.75-1.24,1.83-2.48,3.68-3.75,5.49-1.29,1.81-2.62,3.58-4.06,5.27-.82.97-1.74,1.87-2.7,2.73-.67-.36-1.37-.67-2.07-.92.38-.43.76-.88,1.12-1.33,1.25-1.56,2.42-3.21,3.62-4.82,1.24-1.65,2.44-3.34,3.66-4.99,1.22-1.65,2.47-3.3,3.78-4.87.93-1.13,1.97-2.17,3.03-3.21,1.06-1.03,2.15-2.03,3.2-3.07.03.02.08.05.12.09.04.02.09.05.13.09Z"/><path class="cls-3" d="M134.34,14.89v-1.49c.55-.17,1.12-.3,1.67-.45s1.09-.33,1.59-.58c1.22-.63,2.48-.96,3.76-1.11s2.59-.11,3.92-.02c1.83.13,3.65.36,5.48.52s3.66.24,5.51.09c.72-.06,1.44-.1,2.15-.15s1.44-.09,2.15-.15c.96-.08,1.87-.06,2.73.2s1.66.74,2.4,1.58c-.95-.3-1.86-.43-2.74-.41s-1.72.17-2.54.44c-2.4.78-4.8,1.02-7.21.96s-4.81-.41-7.22-.79c-1.1-.18-2.2-.39-3.3-.58s-2.2-.35-3.31-.41c-.75-.04-1.49.08-2.18.35s-1.33.71-1.86,1.28c-.13.14-.27.28-.41.42s-.28.28-.42.42c-.03-.02-.06-.04-.09-.06s-.06-.04-.09-.06Z"/><path class="cls-1" d="M192.84,11.22c-.25,1.17-1.04,2.27-2.06,3.08s-2.26,1.3-3.4,1.27c-.5-.01-.93-.16-1.3-.39s-.7-.53-1.02-.85c-.43-.44-.94-.72-1.49-.94s-1.11-.38-1.67-.56l-.14.16-.14.16c.37.28.74.57,1.11.85s.75.57,1.13.87c-.35.28-.96.1-1.42.11s-.74.19-.44,1.22c-.04,0-.08,0-.12.01s-.08,0-.12.01c-.28-.28-.55-.56-.83-.84s-.55-.56-.84-.83c-.17-.16-.36-.31-.55-.46s-.39-.29-.58-.44c-.1.24-.25.5-.37.74s-.21.49-.17.71c.14.77.33,1.53.53,2.29s.41,1.51.61,2.27c.02.08.05.15.09.24s.08.19.13.32c-.57-.18-1.06-.43-1.43-.75s-.64-.71-.78-1.17c-.31-1.01-.57-2.03-.83-3.07s-.51-2.09-.78-3.16c1.16.32,1.74.49,2.05.54s.34-.01.41-.14c-.41-.19-.82-.39-1.24-.58s-.82-.39-1.24-.59c.03-.07.05-.14.08-.21s.05-.14.08-.21c.62.16,1.24.32,1.86.48s1.24.31,1.87.45c.44.09.88.19,1.32.27s.89.13,1.33.13c.84,0,1.69-.02,2.53-.06s1.69-.08,2.53-.09c.17,0,.35.02.53.07s.35.12.49.2c.66.39,1.19.58,1.7.54s1-.3,1.58-.8c.14-.12.29-.24.46-.38s.35-.28.56-.46Z"/><path class="cls-1" d="M148.42,3.42c1.36-.51,2.69-.8,3.99-.85s2.58.16,3.86.65c2.21.85,4.45,1.44,6.74,1.79s4.62.45,7,.31c1.27-.08,2.44.11,3.56.47s2.18.91,3.21,1.57c-.87-.18-1.74-.37-2.55-.32s-1.59.36-2.26,1.16c.32.43.66.85.99,1.29s.65.88.93,1.36c.24.42.44.86.61,1.31s.32.92.47,1.37c.14.45.25.91.35,1.37s.19.92.29,1.38c.02.1.02.2.02.31s-.02.21-.02.31c-.11-.05-.25-.1-.37-.15s-.22-.11-.25-.18c-.2-.55-.39-1.11-.57-1.67s-.36-1.12-.52-1.68c-.55-1.87-1.44-3.41-2.71-4.6s-2.91-2.02-4.95-2.47c-1.23-.27-2.48-.51-3.72-.75s-2.48-.48-3.72-.75c-.52-.12-1.02-.28-1.52-.47s-.99-.39-1.49-.57c-1.08-.4-2.16-.6-3.26-.63s-2.19.1-3.3.37c-.1.02-.2.03-.33.04s-.28.01-.49.03Z"/><path class="cls-3" d="M190.83,106.76c.58.94,1.05,1.91,1.41,2.91s.61,2.04.76,3.12c.06.45.12.91.19,1.36s.15.9.25,1.35c.19.82.55,1.52,1.06,2.11s1.18,1.06,2,1.42c.7.32,1.38.68,1.98,1.11s1.15.95,1.6,1.57c-1.57-.41-3.21-.71-4.64-1.33s-2.65-1.55-3.36-3.22c-.23-.53-.39-1.1-.51-1.67s-.21-1.16-.28-1.73c-.15-1.16-.27-2.32-.38-3.48s-.21-2.33-.33-3.49c.04,0,.08-.01.12-.02s.08-.01.12-.02Z"/><path class="cls-1" d="M191.74,3.22c-.24-.15-.48-.29-.72-.44s-.47-.3-.68-.49c-.1-.09-.19-.23-.25-.38s-.08-.31-.04-.42c.24-.66.89-1.15,1.64-1.36s1.59-.17,2.2.23c.35.23.54.51.62.81s.03.63-.11.95c-.18.42-.37.84-.6,1.25s-.48.8-.78,1.14c-.2.22-.48.42-.8.57s-.66.25-.98.28c-.75.07-1.52.06-2.27.14s-1.47.26-2.14.72c-.09.06-.21.1-.33.13s-.26.03-.37.02c-.69-.07-1.28.06-1.8.33s-.96.66-1.37,1.1c-.31.33-.62.53-.99.61s-.79.05-1.32-.08c.74-.49,1.35-1.09,2.03-1.57s1.43-.81,2.44-.76c.26.01.54-.05.82-.15s.54-.24.75-.4c.5-.36,1.01-.66,1.56-.88s1.13-.37,1.76-.45c.3-.03.59-.12.88-.22s.57-.22.86-.31v-.18c-.02-.06-.02-.12-.02-.18Z"/><path class="cls-1" d="M146.89,4.7c1.07-.06,2.15-.15,3.22-.22s2.15-.13,3.22-.12c2.02,0,4,.24,5.9.72s3.72,1.21,5.43,2.22c.67.39,1.25.92,1.8,1.48s1.08,1.16,1.66,1.69c.24.22.49.43.74.65s.5.42.74.65c.74.69,1.19,1.46,1.41,2.28s.21,1.71.04,2.63c-.02.11-.13.2-.25.29s-.28.17-.39.27c-.06-.13-.16-.26-.23-.39s-.13-.25-.1-.36c.2-.85.12-1.6-.16-2.28s-.76-1.31-1.37-1.9c-.6-.59-1.19-1.18-1.78-1.78s-1.16-1.21-1.74-1.82c-.5-.53-1.07-.93-1.7-1.25s-1.3-.53-2-.7c-1.31-.31-2.62-.63-3.94-.94s-2.64-.58-3.97-.82c-.65-.11-1.32-.13-1.99-.11s-1.35.05-2.02.03c-.42,0-.84-.03-1.26-.05s-.84-.05-1.26-.07c0-.01,0-.02,0-.04s0-.02,0-.04Z"/><path class="cls-1" d="M217.39,5.66c-.61.16-1.22.32-1.83.47s-1.22.32-1.83.47c-.02-.04-.04-.08-.06-.11s-.04-.08-.06-.11c.14-.14.27-.29.41-.43s.27-.29.41-.43c-.39-.34-.59-.52-1.03-.5s-1.11.21-2.47.6c-.03-.14-.05-.27-.08-.4s-.05-.27-.08-.4c-1.2.18-1.85.25-2.35,0s-.83-.78-1.37-1.81c.91.19,1.8.37,2.67.55s1.72.36,2.57.56c.85.2,1.69.41,2.53.62s1.68.43,2.53.65c0,.05.01.09.02.14s.01.09.02.14Z"/><path class="cls-1" d="M196.22,7.59c-1.23-.4-2.41-.7-3.57-.81s-2.3,0-3.46.42c-.23.08-.47.15-.71.23s-.45.18-.63.33c-.69.57-1.45.78-2.23.84s-1.59-.03-2.4-.05c1.07-1.35,3.58-2.2,6.2-2.41,2.61-.21,5.32.23,6.78,1.44Z"/><path class="cls-1" d="M197.74,1.12c2.63.49,4.23.85,5.27,1.32s1.51,1.04,1.88,1.94c-.5.04-.99.08-1.47.12s-.96.08-1.43.11c-.05,0-.1-.02-.15-.05s-.1-.08-.14-.11c-.68-.57-1.35-1.14-2.01-1.7s-1.31-1.11-1.94-1.64Z"/><path class="cls-3" d="M195.24,20.23c-.7.49-1.16,1.09-1.52,1.74s-.61,1.35-.88,2.05c-.11.29-.25.62-.46.84s-.5.35-.91.25c-.39-.1-.52-.33-.55-.61s.05-.6.07-.87c.03-.53.23-.96.51-1.35s.64-.76.97-1.15c.39-.47.82-.69,1.28-.8s.95-.1,1.49-.09Z"/><path class="cls-1" d="M212.13,238.76c-7.91-7-21.68-10.19-32.28-11.03-7.52-.22-13.81-2.21-14.53-9.56-1.88-15.34,4.52-33.4-15.23-38.85l-.69-.2c-13.53-3.15-8.42,5.87-5.74,12.49,2.72,7.49,3.76,17.91,5.52,27.81,4.09,22.75,6.22,41.6,8.47,65.97,1.22,8.75.05,15.84,2.97,24.63,2.24,6.19,7.73,14.44,14.84,11.33,5.91-4.1,4.25-12.73,3.55-18.63-1.33-9.17-6.57-37.74-9.74-55.33-2.01-9.4,5.36-5.78,11.57-2.95,11.58,4.69,25.39,11.72,33.2,6.05,3.31-3.44,1.45-8.72-1.91-11.73ZM201.05,194.71l-.63-.27c-3.08-1.09-19.51-2.69-19.3,1.97,4.25,6.62,11.82,11.91,19.77,13.29,8.93-.68,6.76-12.5.16-14.99ZM218.84,184.25l-.18-.52c-1.32-4.39-7.01-6.35-12.18-7.01-2.45-.59-17.61-.22-13.38,3.69,5.26,5.35,16.43,15.29,24.29,10.8,2.13-1.52,2.22-4.86,1.45-6.96Z"/><path class="cls-1" d="M198.79,136.39c-.42.23-.86.42-1.32.57-3.51,1.15-7.6-.23-7.34-2.75-.13.25-.25.52-.36.79-.18.43-.34.86-.5,1.29-.11.29-.21.58-.3.87-.17.53-.31,1.06-.4,1.59-.13.83-.16,1.65.01,2.51.09.43.24.84.4,1.26.16.41.34.82.48,1.23.16.42.38.61.65.69.27.05.59-.04.95-.18.17-.08.33-.15.5-.23,1.37-.64,2.7-1.34,3.93-2.16,1.38-.91,2.67-1.95,3.78-3.16.45-.48.76-1.11,1.01-1.75.23-.67.43-1.35.64-1.99.08-.26.15-.49.22-.74-.62.95-1.44,1.66-2.35,2.16ZM239.84,132.89c-6.27-.59-7.88-3.18-8.51-6.52-.01-.03-.01-.07-.02-.1-.2.09-.42.18-.61.27-.47.2-.94.4-1.41.61-1.71.73-3.41,1.48-5.1,2.26-2.17.98-4.31,1.99-6.42,3.04-.16.08-.32.16-.48.26-1.64.86-3.14,1.9-4.56,3.04-1.56,1.24-3,2.62-4.38,4.06-1.44,1.47-2.82,2.99-4.18,4.54-.61.68-1.22,1.36-1.83,2.04,10.3-2.89,21.81-3.1,31.89-2.55,8.48.13,14.19,4.65,12.32,13.04-3.33,21.18-14.56,39.93-33.56,56.14-3.46,2.87-11.62,9.94-1.3,7.82,4.78-1.18,9.33-2.8,13.57-4.83,9.75-4.67,17.88-11.47,23.52-19.79,8.96-14.42,15.3-31.93,15.67-47.86-.84-11.92-13.61-15.39-24.61-15.47Z"/><path class="cls-1" d="M228.73,123.05c.01.06.02.11.02.17-.33.19-.65.38-.98.57-2.44,1.4-4.93,2.75-7.44,4.07-2.49,1.33-4.99,2.68-7.46,4.06-2.66,1.49-5.15,3.19-7.39,5.13-2.24,1.93-4.25,4.1-5.97,6.56-.54.75-.9,1.56-1.08,2.4-.14.67-.18,1.39-.09,2.1-6.81,5.78-.05,25.44-10.6,25.04-11.08-4.99-5.02-22.81-7.76-32.77-.4-2.51.05-4.07,1.04-5.02v.16c.01,1.33,0,2.66.01,3.98,0,1.12.22,2.14.6,3.12.39.97.95,1.87,1.66,2.75.09.11.22.21.34.32.15.09.27.2.4.31.07-.18.07-.34.07-.49,0-.12-.02-.25-.04-.37-.19-1.22-.43-2.46-.62-3.68-.22-1.22-.42-2.46-.54-3.68-.13-1.13-.18-2.26-.22-3.39.38-.14.79-.23,1.24-.29.14,1.19.29,2.35.49,3.52.1.72.25,1.42.34,2.13.09.7.14,1.42.07,2.17-.04.56.02,1.15.16,1.73.13.59.36,1.14.65,1.63.78,1.27,2.08,1.95,3.47,2.04,1.4.09,2.91-.41,4.13-1.5,4.38-3.88,8.72-7.81,13.13-11.63.47-.39.91-.78,1.38-1.18h.02c2.45-.88,4.37-2.26,5.34-4.48.24-.49.4-.99.52-1.55.5-2.09.16-4.44-.19-6.76-.33-1.93-.65-3.85-.51-5.58.25-4.95,4.67-5.73,8.86-4.32.7.25,1.4.56,2.07.92,1.06.55,2.06,1.24,2.9,2.03.14.13.27.26.4.39v.02s.44.46.44.46c.56.64,1.02,1.29,1.38,1.96.06.1.12.2.17.3.95,1.78,1.33,3.63,1.56,5.45-.65.41-1.31.81-1.97,1.2Z"/><path class="cls-1" d="M230.73,122.05c-.65.4-1.32.79-1.98,1.17,0-.06-.01-.11-.02-.17.66-.39,1.32-.79,1.97-1.2.01.07.02.13.03.2Z"/><path class="cls-1" d="M393.03,120.01c-8.98,7.66-17.84,13.66-29.23,20.12-9.71,5.09-19.86,11.19-27.55,12.9-3.5.5-7.18-1.28-10.6-1.49-6.53-.32-4.2,7.3-3.3,11.64,3.01,14.08,9.49,18.76,21.43,8.7,11.46-7.43,27.55-18.73,39.68-29.47l.64-.61c7.61-7.32,13.42-15.41,15.66-24.54.45-4.36-5.15,1.6-6.73,2.75ZM354.61,77.84l-.44-.25c-6.33-3.23-19.84-4.32-27.01-4.61-.49.61,1.18,2.33,1.72,3.01,8.64,8.79,11.98,14.91,22.67,17.47,11.55,2.08,9.47-11.73,3.06-15.62Z"/><path class="cls-1" d="M28.35,41.89c-8.7-2.56-16.84-5.12-24.41-7.7,3.25,10.29,5.41,23.11,6.51,38.52,0,34.67-2.19,69.34-6.51,104.01-.23,10.54,19.52,46.22,19.52,46.22,0,0,21.69-102.71,22.79-154.09-1.1-12.82-7.07-21.81-17.9-26.96Z"/><path class="cls-1" d="M148.64,73.06l-5.95,22.55c-6.43,58.73-12.25,100.71-17.5,125.92-5.6,27.77-15.42,52.4-29.5,73.92-14.3,17.18-27.91,28.88-40.82,35.08-.29.14-.57.28-.86.41-14.19,5.97-27.37,8.19-39.57,6.64-3.86-.48-7.79-.38-11.77.26-.22.03-.45.07-.67.11,2.96-1.2,5.88-2.5,8.76-3.89.36-.17.72-.35,1.08-.54,27.32-13.5,50.37-35.9,61.56-70.01,35.98-109.72,35.8-136.29,36.08-199.29.04-9.11.8-33.44-.45-44.55-.17-1.48-.37-2.73-.62-3.67,0,0,8.58,8.58,17.81,19.47-.14,1.08-.19,2.16-.16,3.26.01.8.07,1.61.18,2.41.01.09.03.19.05.28,0,.07.01.15.03.22.12.75.27,1.48.44,2.21.22.9.45,1.8.65,2.69h.35c.34-.7.67-1.39,1.01-2.09.06-.11.12-.23.17-.34.2-.39.39-.79.6-1.18.35-.71.73-1.41,1.12-2.1,9.31,11.55,18,24.42,17.98,32.23Z"/><path class="cls-3" d="M340.94,118.48c-1.67-7.28-10.89-12.29-18.17-12.95l-.68-.04c-21.74.65-45.24,1.8-67.28,4.67-1.06.09-2.17.14-3.3.18.23-.27.45-.52.65-.79,2.22-2.86,4.09-5.92,5.4-9.37.55-1.45,1.2-2.88,1.65-4.35.44-1.46.7-2.96.48-4.58-.02-.12,0-.25.02-.37.02-.13.05-.27.07-.4.2-1.06.61-2.04,1.08-2.99.48-.95,1.05-1.87,1.57-2.8.33-.58.58-1.17.7-1.78.15-.59.17-1.22.02-1.86-.49-2.11-1.08-4.19-1.77-6.25-.13-.42-.27-.85-.42-1.27-.86-2.47-1.83-4.89-2.88-7.3-.04-.09-.09-.14-.13-.21-.05-.08-.11-.15-.14-.22-.06.16-.07.31-.07.43,0,.15.01.27.03.4.22,1,.45,2.01.66,3.01.22,1,.44,2.03.63,3.03.25,1.2.38,2.39.31,3.57-.06,1.18-.31,2.37-.79,3.52-.32.75-.81,1.38-1.38,1.97-.02.02-.05.04-.07.06-.49.48-1.06.93-1.64,1.42-.09.08-.19.16-.28.24-.01-.09-.02-.18-.03-.27-.05-.44-.11-.83-.15-1.22-.07-.45-.11-.88-.13-1.29,0-.72.04-1.43.06-2.15v-.19c0-.66.03-1.31-.02-1.95-.2-2.65-.79-5.2-1.71-7.62-.06-.16-.12-.32-.19-.48-.89-2.24-2.08-4.39-3.54-6.45h0c-1.23-1.73-2.67-3.26-4.23-4.67-1.58-1.42-3.26-2.73-4.97-4.02-.11-.07-.23-.2-.32-.31-.09-.12-.16-.23-.14-.32.04-.16.08-.32.12-.48.11-.43.22-.86.34-1.29.18-.6.34-1.19.52-1.78.06-.02.11-.04.18-.04.06-.01.13-.03.18-.05.34.43.68.85,1.01,1.27.33.4.65.81.96,1.21.67.82,1.33,1.66,1.98,2.49-.15-1.28-.4-2.53-.81-3.77-.18-.53-.39-1.05-.63-1.57-.33-.71-.73-1.41-1.2-2.1.39-.09.75-.22,1.08-.31.34-.07.64-.14.95-.09.13.02.27.05.4.08.31.07.62.17.94.28.45.16.88.34,1.28.56.69.35,1.21.8,1.57,1.36.34.55.52,1.22.51,2.01-.02.45.01.89.07,1.36.07.45.16.9.3,1.33.31,1.07.88,1.99,1.56,2.83.7.84,1.51,1.62,2.32,2.37,1.88,1.76,3.64,3.6,5.14,5.59.4.52.78,1.05,1.14,1.59.46.7.9,1.42,1.29,2.16.49.88.92,1.8,1.29,2.75.64,1.67,1.2,3.37,1.72,5.09.52,1.72,1,3.44,1.52,5.17.22.68.4,1.36.58,2.08.18.71.36,1.45.57,2.22.47-.9.79-1.77.95-2.64.14-.75.16-1.51.02-2.26-.02-.12-.04-.23-.07-.35-.52-2.32-1.1-4.63-1.81-6.89-.72-2.26-1.56-4.5-2.68-6.66-.61-1.2-1.16-2.43-1.48-3.69-.33-1.27-.42-2.6-.06-3.98.02-.09.02-.22-.02-.32-.03-.11-.09-.24-.12-.33-.49-.98-.93-1.95-1.42-2.94-.3-.61-.61-1.23-.94-1.83-.18-.35-.37-.7-.57-1.04-.36-.61-.73-1.23-1.1-1.83-.35-.54-.69-1.08-1.05-1.61-.73-1.13-1.5-2.24-2.29-3.34-.4-.55-.88-1.06-1.37-1.52-.5-.49-1-.95-1.49-1.42.65-.48,1.3-.99,1.98-1.38.41-.24.83-.42,1.29-.54.32-.1.66-.16,1.02-.18.05,0,.13-.02.18-.03.05-.02.11-.06.16-.09.46-.27.9-.55,1.32-.84,1.08-.75,2.05-1.57,2.9-2.5.48-.53.92-1.1,1.32-1.7.56-.85,1.04-1.77,1.4-2.78.16-.51.34-1.01.54-1.51.18-.5.4-.99.65-1.45.89-1.69,1.32-3.36,1.27-5.01s-.57-3.28-1.58-4.89c-.27-.45-.61-.86-1-1.26-.38-.39-.79-.75-1.2-1.09-.43-.36-.88-.67-1.37-.95-.46-.29-.95-.58-1.41-.88-.7-.45-1.42-.88-2.19-1.17-.3-.12-.61-.21-.94-.29-.38-.08-.77-.13-1.18-.13h-.02c-.11,0-.21,0-.32,0-1.34.09-2.69.16-4.03.25-.83.04-1.66.09-2.48.14-2.17.15-4.34.31-6.51.54-1.11.13-2.26.22-3.35.52-.03.01-.05.02-.08.03-.37.11-.73.24-1.07.42-.64.31-1.23.74-1.74,1.35-.56-.74-1.11-1.48-1.49-2.26-.12-.25-.23-.51-.3-.78h0c-.18-.56-.24-1.16-.15-1.83.05-.34.04-.69.04-1.05-.02-.36-.06-.72-.04-1.08.02-.29-.05-.52-.2-.7l-.02-.02c-.12-.15-.33-.27-.62-.32-1.53-.32-3.03-.39-4.58-.29-.11.01-.21.02-.32.03-1.42.12-2.87.4-4.38.76,1.46.15,2.84.29,4.2.43,1.36.15,2.71.29,4.06.43v3.11c.01,1.02.01,2.02,0,3.03-.02,1.22-.08,2.45-.11,3.67-.04,1.24-.07,2.46-.06,3.7,0,.34.04.77.15,1.15.09.37.25.71.5.91.48.4.65.75.63,1.11-.02.36-.22.72-.42,1.12-.09.16-.17.34-.25.5-.09.18-.16.34-.23.52-.63,1.36-.86,2.4-.65,3.37.22.95.87,1.81,2.03,2.83.36.34.74.54,1.08.6.32.05.61-.06.8-.31.29-.36.26-.63.08-.86-.17-.22-.47-.39-.69-.57-.59-.49-1.09-1.03-1.39-1.6-.31-.59-.42-1.26-.17-2.01.08-.21.17-.42.27-.63.12-.25.25-.49.4-.73.29-.45.59-.88.89-1.29.47-.63.7-.99.7-1.33.02-.36-.19-.72-.66-1.31-.05-.07-.11-.14-.18-.22-.05-.07-.09-.14-.11-.21-.09-.57-.21-1.15-.28-1.72-.09-.59-.15-1.15-.07-1.71.03-.27.28-.55.6-.79.35-.25.74-.46,1.08-.62.48-.24.96-.47,1.44-.71,0,0,.01,0,.02-.01.65-.31,1.32-.62,1.98-.92,1.15-.53,2.32-1.04,3.48-1.52,1.47-.61,2.96-1.15,4.51-1.52,1.52-.38,3.12-.63,4.77-.65,1.9-.02,3.62.29,5.16.91,1.54.65,2.91,1.6,4.09,2.89,1.76,1.89,2.67,3.89,2.91,5.99.21,2.1-.25,4.29-1.31,6.51-.13.27-.25.52-.36.79-.11.27-.22.54-.31.81-.44,1.4-1.14,2.64-2.04,3.71-.77.92-1.67,1.72-2.67,2.42-.2.16-.4.29-.61.43-.25.18-.56.31-.88.42-.32.09-.65.18-.95.3-.38.13-.77.23-1.13.34-.38.13-.74.27-1.04.49-.38.27-.74.43-1.11.5-.38.07-.76.03-1.19-.07-.27-.08-.54-.16-.79-.24-.27-.07-.54-.14-.79-.23-.06-.02-.12-.04-.18-.05-.32-.08-.6-.07-.87,0-.31.11-.58.31-.83.6-.14.18-.29.36-.41.55-.13.2-.25.4-.36.59-.41.72-.74,1.25-1.09,1.65-.26.33-.54.56-.85.72-.46.23-1.01.31-1.79.31-.39,0-.83-.03-1.36-.07-.02,0-.06,0-.09.01-.04.02-.08.06-.13.07-.47,1.13-.95,2.26-1.43,3.39-.47,1.15-.97,2.28-1.48,3.41-.12.29-.14.49-.07.67.07.18.25.32.49.5,1.2.91,2.4,1.83,3.58,2.74,1.19.93,2.35,1.87,3.5,2.84,1.08.89,1.85,1.93,2.33,3.08.51,1.17.7,2.42.65,3.75-.07,1.63-.16,3.25-.29,4.88-.11,1.63-.23,3.24-.36,4.88-.05.95-.16,1.9-.23,2.85-.09.95-.16,1.92-.2,2.87-.01,1,.22,1.76.72,2.29.5.54,1.27.88,2.33,1.01.49.07.97.09,1.45.11.51,0,.99,0,1.48.03.19,0,.37.02.61.06.21.01.48.05.8.09-.34.23-.63.41-.89.59s-.49.34-.72.48c-1.53,1.01-3.12,1.9-4.66,2.87-1.55.95-3.07,1.97-4.44,3.19-1.23,1.12-2.43,2.26-3.51,3.5-1.09,1.22-2.08,2.51-2.87,3.95-.97,1.68-2.04,3.3-3.21,4.84-1.18,1.54-2.44,3.03-3.75,4.5-.07.07-.14.16-.21.25-.08.11-.13.2-.2.29.85-.54,1.68-1.08,2.5-1.64.51-.35,1.02-.7,1.52-1.07,1.27-.95,2.49-1.97,3.6-3.12,1.45-1.54,2.91-3.08,4.38-4.63,1.49-1.52,2.97-3.03,4.53-4.48,1.83-1.67,3.7-3.3,5.6-4.9l5.7-4.79c.51-.43,1.01-.84,1.55-1.25.53-.43,1.09-.86,1.68-1.33-.01.22-.03.43-.06.63-.08.67-.23,1.29-.44,1.86-.29.78-.68,1.46-1.17,2.1-.91,1.19-1.56,2.46-1.99,3.77-.44,1.33-.68,2.71-.75,4.12-.05,1.22-.39,2.23-.99,3.07-.59.86-1.43,1.54-2.52,2.14-1.51.82-3.02,1.65-4.52,2.49-1.49.82-2.98,1.68-4.43,2.56-2,1.21-3.97,2.41-5.92,3.63-1.73,1.08-3.45,2.16-5.19,3.22-.23.15-.47.3-.7.44-.18.1-.36.19-.57.28-.22.09-.47.18-.74.31.22-.56.6-.99.9-1.44.27-.38.48-.8.5-1.31,0-.09,0-.19,0-.3-.3.18-.59.32-.86.46-.25.15-.48.29-.7.47-1,.84-1.99,1.72-2.97,2.58-.25.22-.5.44-.75.66.14.13.27.26.4.39v.02s.44.46.44.46c.56.64,1.02,1.29,1.38,1.96,1.38-.99,2.78-1.94,4.19-2.88,2.46-1.59,5.01-3.06,7.57-4.5,2.58-1.45,5.19-2.85,7.75-4.3.39-.24.79-.43,1.24-.65.43-.23.89-.47,1.41-.72,0,.01-.01.01-.01.02-.08.19-.15.31-.18.41-.06.11-.09.18-.13.26-1.09,1.84-2.33,3.58-3.71,5.2-.2.23-.41.46-.61.69-.28.31-.57.62-.86.92-.75.04-1.45.09-2.06.18-.14.02-.27.04-.39.06-1.23.21-1.96.59-2.04,1.14-.07.47.29,1.08,1.05,1.78-2.48,2.06-5.1,3.96-7.79,5.77-1.21.81-2.45,1.6-3.7,2.37-.65.41-1.31.81-1.97,1.2.01.06.02.11.02.17.66-.38,1.33-.77,1.98-1.17.2,1.47.31,2.91.58,4.22-.2.09-.42.18-.61.27-.47.2-.94.4-1.41.61,0,.04.01.08.02.12.68-.29,1.35-.59,2.02-.9,1.1-.51,2.19-1.04,3.26-1.59.89-.47,1.77-.96,2.63-1.48,2.71-1.59,5.23-3.44,7.53-5.66l1.29-1.3c.21.13.42.25.63.37,6.52,3.79,13.9,6.26,20.93,4.85,13.07-2.45,23.01-4.32,38.15-4.5,6.47-.39,15.5.34,9.2,8.02-3.29,4.01-7.37,8.8-11.67,11.31-1.88,1.12-3.81,1.79-5.73,1.76-3.66.15-10.81-2.69-14.81-1.89-2.23.44-3.49,2.01-2.62,5.86,5.47,12.8,1.7,26.27-4.5,38.88-1.98,3.82-4.72,7.61-7.43,10.71-3.75,4.14-5.09,7.53,2.24,5.67,2.92-.8,5.53-1.84,7.87-3.1.03-.01.05-.03.08-.04,14.23-7.68,18.35-23.22,21.72-38.99,1.51-5.09,5.46-7.85,10.11-10.02.27-.12.54-.25.81-.37.67-.32,1.33-.65,1.99-1h.01c6.68-3.47,12.85-8.09,18.27-12.75,4.91-4.04,10.26-8.18,9.65-12.63ZM253.63,49.43c.24.24.49.49.75.73.16.14.32.28.49.41.52.43.96.9,1.3,1.4.36.51.63,1.06.83,1.69.21.7.5,1.38.79,2.04.23.56.48,1.11.68,1.66.05.13.1.26.14.39.15.41.24.84.31,1.27.09.41.14.86.23,1.28-.05.01-.09.03-.14.05-.06,0-.09.02-.14.03-.29-.23-.58-.45-.87-.69-1.22-.99-2.33-2.03-3.23-3.17-.36-.44-.67-.9-.96-1.37-1.2-1.98-1.8-4.24-1.37-6.98.4.41.79.84,1.19,1.26ZM248.1,43.99c.13-.16.27-.34.45-.55.32.3.65.61.97.91.31.31.61.59.92.88-.02.04-.02.05-.04.07-.02.02-.04.05-.05.07-.43-.14-.87-.27-1.3-.41-.44-.14-.89-.29-1.38-.43.15-.2.29-.36.43-.54ZM253.07,73.98c.54,2.21.77,4.48.41,6.85-.84-2.15-1.29-4.37-1.65-6.62-.37-2.24-.66-4.5-1.14-6.7.95,2.13,1.83,4.26,2.38,6.47Z"/><path class="cls-3" d="M210.13,239.76c-7.91-7-21.68-10.19-32.28-11.03-7.52-.22-13.81-2.21-14.53-9.56-1.88-15.34,4.52-33.4-15.23-38.85l-.69-.2c-13.53-3.15-8.42,5.87-5.74,12.49,2.72,7.49,3.76,17.91,5.52,27.81,4.09,22.75,6.22,41.6,8.47,65.97,1.22,8.75.05,15.84,2.97,24.63,2.24,6.19,7.73,14.44,14.84,11.33,5.91-4.1,4.25-12.73,3.55-18.63-1.33-9.17-6.57-37.74-9.74-55.33-2.01-9.4,5.36-5.78,11.57-2.95,11.58,4.69,25.39,11.72,33.2,6.05,3.31-3.44,1.45-8.72-1.91-11.73ZM199.05,195.71l-.63-.27c-3.08-1.09-19.51-2.69-19.3,1.97,4.25,6.62,11.82,11.91,19.77,13.29,8.93-.68,6.76-12.5.16-14.99ZM216.84,185.25l-.18-.52c-1.32-4.39-7.01-6.35-12.18-7.01-2.45-.59-17.61-.22-13.38,3.69,5.26,5.35,16.43,15.29,24.29,10.8,2.13-1.52,2.22-4.86,1.45-6.96Z"/><path class="cls-3" d="M197.47,136.96c-2.76,1.98-6.76,1.72-8.5.2-.59-.51-.92-1.18-.84-1.95-.13.25-.25.52-.36.79-.18.43-.34.86-.5,1.29-.31.81-.56,1.64-.7,2.46-.13.83-.16,1.65.01,2.51.09.43.24.84.4,1.26.16.41.34.82.48,1.23.16.42.38.61.65.69.27.05.59-.04.95-.18.85-.39,1.69-.79,2.5-1.23.66-.36,1.31-.75,1.93-1.16,1.38-.91,2.67-1.95,3.78-3.16.45-.48.76-1.11,1.01-1.75.18-.53.34-1.06.51-1.57.04-.14.09-.28.13-.42.08-.26.15-.49.22-.74-.46.7-1.03,1.28-1.67,1.73ZM237.84,133.89c-6.33-.6-7.91-3.23-8.53-6.62-.2.09-.42.18-.61.27-2.17.93-4.36,1.88-6.51,2.87-1.65.75-3.28,1.51-4.9,2.3-.51.24-1.02.49-1.52.74-1.83.92-3.48,2.05-5.04,3.3-1.56,1.24-3,2.62-4.38,4.06-1.44,1.47-2.82,2.99-4.18,4.54-.61.68-1.22,1.36-1.83,2.04,10.3-2.89,21.81-3.1,31.89-2.55,8.48.13,14.19,4.65,12.32,13.04-3.33,21.18-14.56,39.93-33.56,56.14-3.46,2.87-11.62,9.94-1.3,7.82,5.54-1.36,10.77-3.33,15.57-5.83,8.87-4.62,16.27-11.04,21.52-18.79,8.96-14.42,15.3-31.93,15.67-47.86-.84-11.92-13.61-15.39-24.61-15.47Z"/><path class="cls-3" d="M391.03,121.01c-8.98,7.66-17.84,13.66-29.23,20.12-9.71,5.09-19.86,11.19-27.55,12.9-3.5.5-7.18-1.28-10.6-1.49-6.53-.32-4.2,7.3-3.3,11.64,3.01,14.08,9.49,18.76,21.43,8.7,11.46-7.43,27.55-18.73,39.68-29.47l.64-.61c7.61-7.32,13.42-15.41,15.66-24.54.45-4.36-5.15,1.6-6.73,2.75ZM352.61,78.84l-.44-.25c-6.33-3.23-19.84-4.32-27.01-4.61-.49.61,1.18,2.33,1.72,3.01,8.64,8.79,11.98,14.91,22.67,17.47,11.55,2.08,9.47-11.73,3.06-15.62Z"/><path class="cls-3" d="M26.35,42.89c-8.7-2.56-16.84-5.12-24.41-7.7,3.25,10.29,5.41,23.11,6.51,38.52,0,34.67-2.19,69.34-6.51,104.01-.23,10.54,19.52,46.22,19.52,46.22,0,0,21.69-102.71,22.79-154.09-1.1-12.82-7.07-21.81-17.9-26.96Z"/><path class="cls-1" d="M130.66,40.83c-.61,1.07-1.17,2.17-1.72,3.28-.05.11-.11.23-.17.34-.34.7-.67,1.39-1.01,2.09h-.35c-.2-.89-.43-1.79-.65-2.69-.17-.73-.32-1.46-.44-2.21-.02-.07-.03-.15-.03-.22-.02-.09-.04-.19-.05-.28-.25-1.91-.26-3.8-.02-5.67.18.2.35.4.52.61v.02c-.26,1.89-.22,3.83.19,5.83.03.18.07.36.12.54.16.71.37,1.43.64,2.15.16-.29.33-.58.48-.87.08-.14.16-.28.23-.41.58-1.07,1.15-2.13,1.72-3.18.18.22.36.45.54.67Z"/><path class="cls-3" d="M146.64,74.06l-5.95,22.55c-6.43,58.73-12.25,100.71-17.5,125.92-5.6,27.77-15.42,52.4-29.5,73.92-13.57,16.29-26.5,27.66-38.82,34.08-.96.5-1.91.97-2.86,1.41-14.19,5.97-27.37,8.19-39.57,6.64-4.08-.51-8.23-.37-12.44.37.89-.36,1.78-.73,2.67-1.11,2.73-1.18,5.43-2.43,8.09-3.78.36-.17.72-.35,1.08-.54,26.45-13.6,48.64-35.73,59.56-69.01,35.98-109.72,35.8-136.29,36.08-199.29.04-10.32,1.02-40.19-1.07-48.22,0,0,.97.97,2.62,2.67,3.22,3.36,9.06,9.57,15.19,16.8l1.84,2.26c.01.8.07,1.61.18,2.41.01.09.03.19.05.28,0,.07.01.15.03.22.12.75.27,1.48.44,2.21.22.9.45,1.8.65,2.69h.35c.34-.7.67-1.39,1.01-2.09.06-.11.12-.23.17-.34.2-.39.39-.79.6-1.18,8.97,11.26,17.12,23.57,17.1,31.13Z"/></svg>